<svg xmlns="http://www.w3.org/2000/svg" width="20" height="18" viewBox="0 0 20 18">
    <path fill="#d0af73" fill-rule="evenodd" d="M9.856 15.713C5.518 15.713 2 12.197 2 7.857S5.518 0 9.856 0c4.34 0 7.859 3.517 7.859 7.857v1.085c0 1.64-1.332 2.966-2.969 2.968-1.64 0-2.966-1.327-2.966-2.968V7.857c-.002-1.062-.862-1.921-1.924-1.923-1.059.002-1.918.861-1.922 1.923.004 1.06.863 1.917 1.922 1.92.136 0 .265-.014.388-.04.578-.117 1.142.254 1.26.832.117.574-.254 1.141-.831 1.259-.267.05-.537.082-.817.082-2.237 0-4.051-1.815-4.051-4.053 0-2.239 1.814-4.054 4.051-4.054 2.24 0 4.054 1.815 4.054 4.054v1.085c.001.46.374.834.836.834.46 0 .837-.374.838-.834V7.857c-.006-3.163-2.565-5.72-5.728-5.726-3.159.006-5.717 2.563-5.725 5.726.008 3.16 2.566 5.716 5.725 5.724.78 0 1.517-.156 2.192-.434.541-.228 1.165.031 1.395.574.225.545-.033 1.17-.58 1.394-.924.385-1.942.598-3.004.598h-.003z"/>
</svg>
