<svg xmlns="http://www.w3.org/2000/svg" width="14" height="14" viewBox="0 0 14 14">
    <g fill="none" stroke="#575756">
        <path stroke-width=".638" d="M4.846.32c-1.25 0-2.382.51-3.2 1.339C.825 2.488.318 3.633.318 4.9c0 3.11 3.563 7.487 4.527 8.614C5.81 12.387 9.373 8.01 9.373 4.9c0-1.267-.506-2.412-1.326-3.241-.819-.828-1.95-1.34-3.2-1.34z" transform="translate(2)"/>
        <path stroke-width=".6" d="M4.965 6.738c-.979 0-1.773-.794-1.773-1.773 0-.979.794-1.773 1.773-1.773.979 0 1.773.794 1.773 1.773 0 .979-.794 1.773-1.773 1.773z" transform="translate(2)"/>
    </g>
</svg>
