<svg xmlns="http://www.w3.org/2000/svg" width="14" height="14" viewBox="0 0 14 14">
    <g fill="none" fill-rule="evenodd" stroke="#575756" stroke-linecap="round">
        <path stroke-width=".4" d="M2.8.2c-.568 0-1.017.191-1.362.604-.316.378-.545.954-.683 1.77-.128.763-.086 1.288.038 1.67.183.561.543.828.869 1.062.251.18.497.326.49.699l1.309 8.582V5.938c0-.345.233-.516.476-.724.509-.436 1.139-.967.907-2.634-.119-.859-.346-1.424-.65-1.786C3.835.362 3.363.2 2.8.2z" transform="translate(0 1)"/>
        <path stroke-linejoin="square" stroke-width=".2" d="M2.8.5c-.47 0-.845.154-1.132.497-.29.347-.491.88-.617 1.627-.117.696-.087 1.178.027 1.528.158.485.478.709.759.91.334.24.612.453.615.92l.709 4.648V5.938c0-.44.262-.679.58-.952.458-.392 1.013-.873.806-2.365-.108-.782-.305-1.304-.582-1.635C3.663.626 3.266.5 2.799.5z" transform="translate(0 1)"/>
        <g stroke-linejoin="round">
            <path stroke-width=".4" d="M8.043.752l.118 2.609h-.287V.752c0-.155-.07-.297-.188-.4C7.58.26 7.432.2 7.27.2c-.163 0-.31.06-.417.152-.118.103-.188.245-.188.4v2.609h-.286l.117-2.6c0-.164-.07-.306-.187-.409C6.2.26 6.054.2 5.89.2c-.163 0-.31.06-.417.152-.117.103-.186.245-.186.4l-.127 2.8v.61c.027.546.474.912.994 1.194.145.08.254.182.327.306.075.13.11.28.11.443v5.822c0 .188.082.359.217.482.128.117.304.191.5.191s.373-.074.501-.191c.135-.123.217-.294.217-.482V6.05c0-.264.076-.535.34-.69.516-.302.988-.649 1.01-1.202L9.25.745c0-.148-.069-.29-.186-.393C8.97.27 8.86.167 8.31.31l-.04.01c-.014.01-.028.021-.228.432z" transform="translate(0 1)"/>
            <path stroke-linejoin="square" stroke-width=".2" d="M8.343.752l.131 2.909h-.9V.752c0-.068-.034-.129-.085-.173C7.433.529 7.355.5 7.27.5s-.164.03-.22.079c-.052.044-.085.105-.085.173v2.909h-.9L6.195.747c0-.063-.033-.124-.084-.168C6.054.529 5.976.5 5.89.5c-.086 0-.164.03-.22.078-.051.045-.084.106-.084.174L5.46 3.565v.593c.024.44.426.711.837.935.198.107.344.25.442.417.102.174.153.375.153.595v5.822c0 .102.046.194.118.26.077.07.182.113.298.113.117 0 .222-.043.299-.112.073-.067.119-.16.119-.261V6.05c0-.37.125-.735.488-.948.41-.24.84-.495.862-.95L8.952.757c0-.072-.033-.133-.084-.178-.061-.052-.155-.061-.525.174z" transform="translate(0 1)"/>
        </g>
        <g>
            <path stroke-width=".4" d="M11.92.2c-.331 0-.637.17-.909.477-.271.308-.51.759-.712 1.279-.654 1.68-.942 4.092-.942 4.516 0 .376.129.716.334.962.217.26.518.417.848.417h.595l1.483 5.62.001-12.032c.002-.38.006-.712-.697-1.239z" transform="translate(0 1)"/>
            <path stroke-linejoin="square" stroke-width=".2" d="M11.885.501c-.24.013-.454.154-.648.374-.253.287-.471.707-.659 1.19-.638 1.639-.921 3.993-.921 4.407 0 .3.1.573.264.77.158.19.376.31.618.31h.826l.953 3.607V1.44c.002-.301.002-.564-.433-.938z" transform="translate(0 1)"/>
        </g>
    </g>
</svg>
