<svg xmlns="http://www.w3.org/2000/svg" xmlns:xlink="http://www.w3.org/1999/xlink" width="14" height="14" viewBox="0 0 14 14">
    <defs>
        <path id="prefix__a" d="M2.613 4.977c.92 1.808 2.402 3.284 4.21 4.21L8.23 7.782c.172-.173.428-.23.651-.154.716.237 1.489.364 2.281.364.351 0 .639.288.639.64v2.23c0 .35-.288.638-.639.638C5.161 11.5.3 6.638.3.639.3.287.588 0 .939 0h2.236c.351 0 .639.287.639.639 0 .798.128 1.565.364 2.28.07.224.02.474-.16.652L2.613 4.977z"/>
    </defs>
    <g fill="none" fill-rule="evenodd" transform="translate(1 1)">
        <g fill-rule="nonzero" stroke="#575756" stroke-linejoin="round">
            <path stroke-width=".5" d="M3.32-.288L.051.438C-.004 3.586 1.25 6.441 3.304 8.496c2.063 2.063 4.931 3.324 8.796 2.563l-.74-3.32c-.883.026-1.68-.125-3.229-.214L6.776 8.88C5.134 8 3.78 6.647 2.908 5.002l1.55-2.037C4.18 2.176 4.076 1.37 3.319-.288z"/>
            <path stroke-linejoin="square" stroke-width=".1" d="M3.146.058L.35.679c.01 2.97 1.219 5.657 3.166 7.605 1.946 1.945 4.63 3.152 8.224 2.537l-.619-2.779c-.775-.004-1.541-.127-2.873-.21L6.833 9.249c-1.842-.935-3.35-2.435-4.279-4.276L4.122 2.91c-.228-.7-.36-1.458-.976-2.852z"/>
        </g>
    </g>
</svg>
