<svg xmlns="http://www.w3.org/2000/svg" width="14" height="14" viewBox="0 0 14 14">
    <g fill="none" fill-rule="evenodd" stroke="#575756" stroke-width=".6">
        <path d="M10.64 9.375H1.133c-.39 0-.687-.35-.623-.735l.79-4.738c.05-.304.314-.527.622-.527h7.93c.309 0 .573.223.623.527l.79 4.738c.064.385-.233.735-.623.735z" transform="translate(1 1)"/>
        <path d="M1.921 3.375h7.93c.225 0 .423.12.535.302v-2.12c0-.653-.529-1.182-1.182-1.182H2.568c-.652 0-1.182.529-1.182 1.182v2.12c.113-.182.31-.302.535-.302zM11.258 8.736c.003.344-.26.639-.618.639H1.131c-.356 0-.62-.295-.617-.64C.51 8.76.5 8.782.5 8.806v3.139c0 .238.19.43.422.43h1.114c.233 0 .422-.192.422-.43v-1.138c0-.238.19-.431.422-.431h6.011c.233 0 .422.193.422.43v1.139c0 .238.19.43.422.43h1.115c.233 0 .422-.192.422-.43V8.806c0-.025-.01-.046-.014-.07z" transform="translate(1 1)"/>
    </g>
</svg>
