<svg xmlns="http://www.w3.org/2000/svg" width="52" height="63" viewBox="0 0 52 63">
    <g fill="none" fill-rule="evenodd" transform="translate(1 1)">
        <path stroke="#C5C5C7" stroke-width="2" d="M32 .64H1.92C1.213.64.64 1.212.64 1.92v57.6c0 .708.573 1.28 1.28 1.28H48c.708 0 1.28-.572 1.28-1.28v-41.6L32 .64z"/>
        <path stroke="#C5C5C7" stroke-width="2" d="M32.305 17.92h16.24c.27 0 .406-.329.214-.52L32.52 1.16c-.19-.191-.52-.055-.52.216v16.24c0 .168.136.304.305.304z"/>
        <rect width="18" height="1" x="22.5" y="32.5" fill="#D8D8D8" stroke="#C5C5C7" rx=".5"/>
        <rect width="8" height="8" x="9" y="28" fill="#D8D8D8" rx="1"/>
        <rect width="18" height="1" x="22.5" y="42.5" fill="#D8D8D8" stroke="#C5C5C7" rx=".5"/>
        <rect width="8" height="8" x="9" y="39" fill="#D8D8D8" rx="1"/>
        <rect width="31" height="1" x="9.5" y="51.5" fill="#D8D8D8" stroke="#C5C5C7" rx=".5"/>
    </g>
</svg>
