<svg xmlns="http://www.w3.org/2000/svg" width="40" height="42" viewBox="0 0 40 42">
    <g fill="none" fill-rule="evenodd">
        <g>
            <path fill="#424650" stroke="#424650" stroke-width="2.571" d="M35.603 17.802c0 9.831-7.97 17.801-17.801 17.801C7.97 35.603 0 27.633 0 17.802 0 7.97 7.97 0 17.802 0c9.831 0 17.801 7.97 17.801 17.802z" transform="translate(-75) translate(77 4)"/>
            <path fill="#FFF" d="M19.374 19.42v4.322h.615c1.165-.043 2.11-.99 2.11-2.15 0-1.205-.99-2.173-2.198-2.173h-.527zm-3.341-2.84h.593v-4.322H16.1c-1.209 0-2.198.968-2.198 2.15 0 1.162.945 2.13 2.132 2.173zM25 21.592c0 2.732-2.264 4.968-5.055 4.99h-.571V28h-2.748v-1.398H11.88v-2.86h4.747v-4.323h-.55C13.265 19.398 11 17.161 11 14.41c0-2.732 2.264-4.968 5.077-4.99h.55V8h2.747v1.42h3.384v2.838h-3.384v4.323h.571c2.813.021 5.055 2.236 5.055 5.01z" transform="translate(-75) translate(77 4)"/>
        </g>
    </g>
</svg>
