<svg xmlns="http://www.w3.org/2000/svg" width="40" height="42" viewBox="0 0 40 42">
    <g fill="none" fill-rule="evenodd">
        <g>
            <path fill="#424650" stroke="#424650" stroke-width="2.571" d="M35.603 17.801c0 9.832-7.97 17.802-17.802 17.802C7.97 35.603 0 27.633 0 17.8 0 7.97 7.97 0 17.8 0 27.633 0 35.603 7.97 35.603 17.8z" transform="translate(-75) translate(77 3)"/>
            <path stroke="#FFF" stroke-width="1.5" d="M32.802 17.801c0 8.285-6.716 15-15 15-8.285 0-15-6.715-15-15 0-8.284 6.715-15 15-15 8.284 0 15 6.716 15 15z" transform="translate(-75) translate(77 3)"/>
            <path fill="#FFF" d="M20.802 17.801c0 1.657-1.344 3-3 3-1.657 0-3-1.343-3-3 0-1.656 1.343-3 3-3 1.656 0 3 1.344 3 3" transform="translate(-75) translate(77 3)"/>
            <path stroke="#FFF" stroke-linecap="round" stroke-width="2" d="M17.776 8.752L17.776 17.752 23.776 25.037" opacity=".5" transform="translate(-75) translate(77 3)"/>
        </g>
    </g>
</svg>
