<svg xmlns="http://www.w3.org/2000/svg" xmlns:xlink="http://www.w3.org/1999/xlink" width="26" height="23" viewBox="0 0 26 23">
    <defs>
        <filter id="prefix__a" width="124.2%" height="260%" x="-12.1%" y="-80%" filterUnits="objectBoundingBox">
            <feOffset in="SourceAlpha" result="shadowOffsetOuter1"/>
            <feGaussianBlur in="shadowOffsetOuter1" result="shadowBlurOuter1" stdDeviation="3"/>
            <feColorMatrix in="shadowBlurOuter1" result="shadowMatrixOuter1" values="0 0 0 0 0 0 0 0 0 0 0 0 0 0 0 0 0 0 0.0988581731 0"/>
            <feMerge>
                <feMergeNode in="shadowMatrixOuter1"/>
                <feMergeNode in="SourceGraphic"/>
            </feMerge>
        </filter>
        <path id="prefix__b" d="M13 3.443V2L7 5.59 1 2v1.443L7 7l6-3.557zM12.62 0c.372 0 .695.14.97.418.273.279.41.6.41.965v8.234c0 .364-.137.686-.41.965-.275.279-.598.418-.97.418H1.38c-.372 0-.695-.14-.97-.418-.273-.279-.41-.6-.41-.965V1.383C0 1.019.137.697.41.418.686.14 1.009 0 1.38 0h11.24z"/>
    </defs>
    <g fill="none" fill-rule="evenodd" filter="url(#prefix__a)" transform="translate(6 4)">
        <g transform="translate(0 2)">
            <use fill="#000000" fill-rule="nonzero" xlink:href="#prefix__b"/>
        </g>
    </g>
</svg>
