<svg xmlns="http://www.w3.org/2000/svg" width="36" height="36" viewBox="0 0 36 36">
    <g fill="none" fill-rule="evenodd">
        <path fill="#A81919" d="M17.35 17l3.909-3.908c.372-.372.372-.978 0-1.35-.18-.181-.42-.28-.675-.28-.256 0-.495.099-.676.28L16 15.65l-3.908-3.909c-.18-.18-.42-.28-.675-.28-.255 0-.495.1-.676.28-.372.373-.372.978 0 1.35l3.909 3.91-3.909 3.907c-.18.18-.28.42-.28.676 0 .255.1.495.28.675.18.18.42.28.675.28.255 0 .495-.1.676-.28L16 18.35l3.908 3.909c.18.18.42.28.675.28.256 0 .496-.1.676-.28.18-.18.28-.42.28-.676 0-.255-.1-.494-.28-.675L17.35 17z" transform="translate(2 1)"/>
        <path stroke="#A81919" stroke-linecap="square" d="M16 0C6.626 0-1 7.626-1 17c0 9.374 7.626 17 17 17 9.374 0 17-7.626 17-17 0-9.374-7.626-17-17-17" opacity=".7" transform="translate(2 1)"/>
    </g>
</svg>
