<svg xmlns="http://www.w3.org/2000/svg" width="36" height="36" viewBox="0 0 36 36">
    <g fill="none" fill-rule="evenodd">
        <path fill="#449D1B" d="M21.54 11.462c-.263 0-.513.113-.688.312l-6.645 7.537-3.095-3.138c-.174-.177-.405-.274-.65-.274-.248 0-.48.098-.655.276-.36.367-.358.964.003 1.33l3.783 3.836c.175.177.406.274.652.274h.025c.252-.008.493-.121.661-.312l7.295-8.273c.34-.386.308-.982-.07-1.328-.17-.155-.389-.24-.617-.24" transform="translate(2 1)"/>
        <path stroke="#449D1B" stroke-linecap="square" d="M16 0C6.626 0-1 7.626-1 17c0 9.374 7.626 17 17 17 9.374 0 17-7.626 17-17 0-9.374-7.626-17-17-17" opacity=".7" transform="translate(2 1)"/>
    </g>
</svg>
