<svg xmlns="http://www.w3.org/2000/svg" width="46" height="42" viewBox="0 0 46 42">
    <g fill="none" fill-rule="evenodd">
        <g>
            <g fill="#A0A2A7">
                <path d="M7.322 0c4.23 0 7.66 3.43 7.66 7.66 0 4.232-3.43 7.662-7.66 7.662-2.937 0-5.488-1.653-6.774-4.079C3.092 9.23 4.722 6.115 4.722 2.62c0-.715-.068-1.414-.198-2.092C5.39.187 6.334 0 7.322 0zM6.988 18l.33.003c7.58.15 13.67 5.45 13.67 11.967h-7.45c-.311-4.789-2.896-9.047-6.828-11.967L6.988 18z" transform="translate(-72) translate(72 3) translate(25 7)"/>
            </g>
            <g fill="#424650" transform="translate(-72) translate(72 3) translate(.57 .043)">
                <path d="M18.152 21.942c-9.941 0-18 6.7-18 14.963h36c0-8.264-8.059-14.963-18-14.963z"/>
                <circle cx="18.152" cy="9.576" r="9.576"/>
            </g>
        </g>
    </g>
</svg>
