<svg xmlns="http://www.w3.org/2000/svg" width="82" height="19" viewBox="0 0 82 19">
    <g fill="#FFF" fill-rule="evenodd">
        <g>
            <path d="M40.063 4.378c-.265 1.592-1.46 1.592-2.653 1.592h-.796l.53-3.051c0-.133.133-.266.399-.266h.265c.796 0 1.592 0 1.99.53.265.133.265.531.265 1.195M39.533 0h-4.51c-.266 0-.532.265-.664.53l-1.857 11.675c0 .265.132.398.397.398h2.388c.266 0 .399-.133.399-.398l.53-3.317c0-.265.265-.53.663-.53h1.46c3.05 0 4.775-1.46 5.173-4.378.266-1.194 0-2.255-.53-2.919C42.186.398 40.992 0 39.532 0M7.562 4.378C7.296 5.97 6.102 5.97 4.908 5.97h-.663l.53-3.051c0-.133.133-.266.399-.266h.265c.796 0 1.592 0 1.99.53.133.133.265.531.133 1.195M7.03 0H2.52c-.266 0-.531.265-.664.53L0 12.206c0 .265.133.398.398.398h2.123c.265 0 .53-.266.663-.531l.53-3.184c0-.265.266-.53.664-.53h1.459c3.051 0 4.776-1.46 5.174-4.378.265-1.194 0-2.255-.53-2.919C9.683.398 8.622 0 7.03 0M17.644 8.49c-.266 1.194-1.194 2.123-2.52 2.123-.664 0-1.195-.266-1.46-.53-.265-.399-.398-.93-.398-1.593.133-1.194 1.194-2.122 2.388-2.122.663 0 1.061.265 1.46.53.397.398.53 1.062.53 1.592m3.05-4.245h-2.122c-.132 0-.398.133-.398.265l-.132.664-.133-.266c-.53-.663-1.46-.928-2.52-.928-2.388 0-4.511 1.857-4.909 4.377-.265 1.327.133 2.52.796 3.317.663.796 1.592 1.061 2.786 1.061 1.99 0 3.051-1.194 3.051-1.194l-.133.664c0 .265.133.398.398.398h1.99c.266 0 .531-.266.664-.531l1.194-7.429c-.133-.133-.399-.398-.531-.398M50.013 8.49c-.266 1.194-1.194 2.123-2.521 2.123-.663 0-1.194-.266-1.46-.53-.265-.399-.397-.93-.397-1.593.132-1.194 1.194-2.122 2.388-2.122.663 0 1.06.265 1.459.53.53.398.663 1.062.53 1.592m3.052-4.245H50.94c-.133 0-.398.133-.398.265l-.132.664-.133-.266c-.53-.663-1.46-.928-2.52-.928-2.389 0-4.511 1.857-4.91 4.377-.264 1.327.134 2.52.797 3.317.663.796 1.592 1.061 2.786 1.061 1.99 0 3.05-1.194 3.05-1.194l-.132.664c0 .265.133.398.398.398h1.99c.265 0 .53-.266.663-.531l1.195-7.429c-.133-.133-.266-.398-.531-.398M32.236 4.245h-2.255c-.265 0-.398.133-.53.265l-2.919 4.51-1.327-4.244c-.132-.266-.265-.398-.663-.398H22.42c-.266 0-.399.265-.399.53l2.388 7.031-2.255 3.184c-.133.265 0 .664.266.664h2.122c.265 0 .398-.133.53-.266l7.297-10.48c.398-.398.133-.796-.133-.796M55.584.398l-1.857 11.94c0 .265.133.397.398.397h1.857c.266 0 .53-.265.663-.53L58.503.53c0-.266-.133-.398-.398-.398h-2.123c-.132-.133-.265 0-.398.265" transform="translate(23.507 3.006)"/>
        </g>
        <g>
            <path d="M12.052 1.258C11.318.419 9.956 0 8.07 0H2.83c-.315 0-.63.314-.734.629L0 14.358c0 .314.21.524.42.524h3.248l.838-5.136v.21c.105-.314.42-.629.734-.629h1.572c3.04 0 5.345-1.257 6.078-4.716v-.314c-.104 0-.104 0 0 0 .105-1.363-.104-2.201-.838-3.04" transform="translate(2 1)"/>
            <path fill-opacity=".66" d="M12.786 4.297v.314c-.734 3.563-3.04 4.716-6.079 4.716H5.135c-.314 0-.629.315-.733.629l-1.048 6.393c0 .21.104.42.419.42h2.725c.314 0 .628-.21.628-.525v-.105l.524-3.249v-.21c0-.314.315-.523.63-.523h.418c2.62 0 4.717-1.048 5.24-4.192.21-1.258.105-2.41-.523-3.144-.105-.21-.315-.42-.63-.524" transform="translate(2 1)"/>
            <path d="M12.052 3.982c-.105 0-.21-.104-.314-.104-.105 0-.21 0-.315-.105-.419-.105-.838-.105-1.362-.105H5.974c-.105 0-.21 0-.315.105-.21.105-.314.314-.314.524l-.839 5.45v.21c.105-.315.42-.63.734-.63h1.572c3.04 0 5.345-1.257 6.078-4.716 0-.105 0-.21.105-.314-.21-.105-.314-.21-.524-.21-.314-.105-.314-.105-.419-.105" transform="translate(2 1)"/>
        </g>
    </g>
</svg>
