<svg xmlns="http://www.w3.org/2000/svg" width="37" height="37" viewBox="0 0 37 37">
    <g fill="none" fill-rule="evenodd" stroke="#D0AF73" stroke-linecap="round" stroke-linejoin="round" stroke-width="2.3" transform="translate(1 1)">
        <circle cx="17.4" cy="17.4" r="5.75"/>
        <path d="M34.65 19.7v-4.6l-5.007-.835c-.301-1.178-.764-2.286-1.369-3.305l2.951-4.13-3.254-3.253-4.131 2.949c-1.019-.605-2.128-1.068-3.305-1.369L19.7.15h-4.6l-.835 5.007c-1.178.301-2.286.764-3.305 1.369L6.83 3.577 3.576 6.829l2.949 4.131c-.605 1.019-1.068 2.127-1.369 3.305L.15 15.1v4.6l5.007.835c.301 1.177.764 2.286 1.369 3.305l-2.949 4.13 3.252 3.253 4.131-2.949c1.019.605 2.127 1.068 3.305 1.369l.835 5.007h4.6l.835-5.007c1.177-.301 2.286-.764 3.305-1.369l4.13 2.951 3.253-3.252-2.949-4.133c.605-1.019 1.068-2.128 1.369-3.305l5.007-.835z"/>
    </g>
</svg>
