<svg xmlns="http://www.w3.org/2000/svg" width="19" height="20" viewBox="0 0 19 20">
    <path fill="#FFF" fill-rule="evenodd" d="M17.909 8.159h-7.627l-.032 2.905h4.305c-.136.536-.344 1.024-.623 1.464-.28.44-.608.823-.987 1.15-.377.328-.807.582-1.29.76-.485.178-.998.268-1.542.268-.68 0-1.314-.138-1.904-.413-.589-.276-1.102-.648-1.54-1.117-.439-.47-.786-1.021-1.043-1.654-.257-.633-.385-1.308-.385-2.022 0-.715.128-1.39.385-2.023.257-.633.604-1.184 1.042-1.654.439-.468.952-.841 1.541-1.117.59-.275 1.224-.413 1.904-.413.922 0 1.756.242 2.504.726.442.286.823.628 1.146 1.024l2.207-2.069c-.538-.553-1.157-1.032-1.856-1.436-1.202-.692-2.535-1.038-4-1.038-1.12 0-2.173.209-3.162.626-.99.417-1.851.986-2.583 1.708-.734.724-1.312 1.572-1.734 2.548C2.212 7.358 2 8.397 2 9.5c0 1.102.212 2.142.635 3.117.422.975 1 1.825 1.734 2.547.732.722 1.593 1.292 2.583 1.71.989.417 2.043.626 3.161.626 1.117 0 2.16-.209 3.128-.626.967-.418 1.801-.988 2.504-1.71.703-.722 1.253-1.572 1.655-2.547.4-.975.6-2.015.6-3.117 0-.224-.008-.447-.022-.67-.016-.224-.039-.448-.069-.671"/>
</svg>
