<svg xmlns="http://www.w3.org/2000/svg" width="14" height="14" viewBox="0 0 14 14">
    <g fill="#FFF">
        <path d="M13.79 12.774c.28.28.28.735 0 1.016-.28.28-.735.28-1.016 0l-2.512-2.513c-.28-.28-.28-.735 0-1.015.28-.28.735-.28 1.015 0l2.513 2.512zM5.744 11.487C2.57 11.487 0 8.916 0 5.744 0 2.57 2.571 0 5.744 0c3.172 0 5.743 2.571 5.743 5.744 0 3.172-2.571 5.743-5.743 5.743zm0-1.436c2.379 0 4.307-1.928 4.307-4.307 0-2.38-1.928-4.308-4.307-4.308-2.38 0-4.308 1.929-4.308 4.308 0 2.379 1.929 4.307 4.308 4.307z"/>
    </g>
</svg>
