<svg xmlns="http://www.w3.org/2000/svg" xmlns:xlink="http://www.w3.org/1999/xlink" width="350" height="348" viewBox="0 0 350 348">
    <defs>
        <path id="prefix__a" d="M175.087.313c-51.183 0-93.19 31.313-97.557 71.22h-9.059v.008C30.979 71.588.594 102.003.594 139.511c0 37.516 30.385 67.914 67.877 67.97l8.412.107 6.71 6.806c20.17 22.44 53.52 37.099 91.26 37.099 41.009 0 76.844-17.323 96.21-43.114.193-.302.395-.597.587-.898h9.858c18.745-.016 35.735-7.628 48.023-19.924 12.288-12.304 19.892-29.292 19.892-48.047 0-37.515-30.408-67.938-67.915-67.969v-.008h-8.858"/>
        <path id="prefix__c" d="M175.087.313c-51.183 0-93.19 31.313-97.557 71.22h-9.059v.008C30.979 71.588.594 102.003.594 139.511c0 37.516 30.385 67.914 67.877 67.97l8.412.107 6.71 6.806c20.17 22.44 53.52 37.099 91.26 37.099 41.009 0 76.844-17.323 96.21-43.114.193-.302.395-.597.587-.898h9.858c18.745-.016 35.735-7.628 48.023-19.924 12.288-12.304 19.892-29.292 19.892-48.047 0-37.515-30.408-67.938-67.915-67.969v-.008h-8.858C268.283 31.626 226.277.313 175.087.313z"/>
        <path id="prefix__e" d="M175.087.313c-51.183 0-93.19 31.313-97.557 71.22h-9.059v.008C30.979 71.588.594 102.003.594 139.511c0 37.516 30.385 67.914 67.877 67.97l8.412.107 6.71 6.806c20.17 22.44 53.52 37.099 91.26 37.099 41.009 0 76.844-17.323 96.21-43.114.193-.302.395-.597.587-.898h9.858c18.745-.016 35.735-7.628 48.023-19.924 12.288-12.304 19.892-29.292 19.892-48.047 0-37.515-30.408-67.938-67.915-67.969v-.008h-8.858"/>
        <path id="prefix__g" d="M175.087.313c-51.183 0-93.19 31.313-97.557 71.22h-9.059v.008C30.979 71.588.594 102.003.594 139.511c0 37.516 30.385 67.914 67.877 67.97l8.412.107 6.71 6.806c20.17 22.44 53.52 37.099 91.26 37.099 41.009 0 76.844-17.323 96.21-43.114.193-.302.395-.597.587-.898h9.858c18.745-.016 35.735-7.628 48.023-19.924 12.288-12.304 19.892-29.292 19.892-48.047 0-37.515-30.408-67.938-67.915-67.969v-.008h-8.858"/>
        <path id="prefix__i" d="M175.087.313c-51.183 0-93.19 31.313-97.557 71.22h-9.059v.008C30.979 71.588.594 102.003.594 139.511c0 37.516 30.385 67.914 67.877 67.97l8.412.107 6.71 6.806c20.17 22.44 53.52 37.099 91.26 37.099 41.009 0 76.844-17.323 96.21-43.114.193-.302.395-.597.587-.898h9.858c18.745-.016 35.735-7.628 48.023-19.924 12.288-12.304 19.892-29.292 19.892-48.047 0-37.515-30.408-67.938-67.915-67.969v-.008h-8.858"/>
        <path id="prefix__k" d="M175.087.313c-51.183 0-93.19 31.313-97.557 71.22h-9.059v.008C30.979 71.588.594 102.003.594 139.511c0 37.516 30.385 67.914 67.877 67.97l8.412.107 6.71 6.806c20.17 22.44 53.52 37.099 91.26 37.099 41.009 0 76.844-17.323 96.21-43.114.193-.302.395-.597.587-.898h9.858c18.745-.016 35.735-7.628 48.023-19.924 12.288-12.304 19.892-29.292 19.892-48.047 0-37.515-30.408-67.938-67.915-67.969v-.008h-8.858"/>
        <path id="prefix__m" d="M175.087.313c-51.183 0-93.19 31.313-97.557 71.22h-9.059v.008C30.979 71.588.594 102.003.594 139.511c0 37.516 30.385 67.914 67.877 67.97l8.412.107 6.71 6.806c20.17 22.44 53.52 37.099 91.26 37.099 41.009 0 76.844-17.323 96.21-43.114.193-.302.395-.597.587-.898h9.858c18.745-.016 35.735-7.628 48.023-19.924 12.288-12.304 19.892-29.292 19.892-48.047 0-37.515-30.408-67.938-67.915-67.969v-.008h-8.858"/>
        <path id="prefix__o" d="M175.087.313c-51.183 0-93.19 31.313-97.557 71.22h-9.059v.008C30.979 71.588.594 102.003.594 139.511c0 37.516 30.385 67.914 67.877 67.97l8.412.107 6.71 6.806c20.17 22.44 53.52 37.099 91.26 37.099 41.009 0 76.844-17.323 96.21-43.114.193-.302.395-.597.587-.898h9.858c18.745-.016 35.735-7.628 48.023-19.924 12.288-12.304 19.892-29.292 19.892-48.047 0-37.515-30.408-67.938-67.915-67.969v-.008h-8.858"/>
        <path id="prefix__q" d="M175.087.313c-51.183 0-93.19 31.313-97.557 71.22h-9.059v.008C30.979 71.588.594 102.003.594 139.511c0 37.516 30.385 67.914 67.877 67.97l8.412.107 6.71 6.806c20.17 22.44 53.52 37.099 91.26 37.099 41.009 0 76.844-17.323 96.21-43.114.193-.302.395-.597.587-.898h9.858c18.745-.016 35.735-7.628 48.023-19.924 12.288-12.304 19.892-29.292 19.892-48.047 0-37.515-30.408-67.938-67.915-67.969v-.008h-8.858"/>
        <path id="prefix__s" d="M175.087.313c-51.183 0-93.19 31.313-97.557 71.22h-9.059v.008C30.979 71.588.594 102.003.594 139.511c0 37.516 30.385 67.914 67.877 67.97l8.412.107 6.71 6.806c20.17 22.44 53.52 37.099 91.26 37.099 41.009 0 76.844-17.323 96.21-43.114.193-.302.395-.597.587-.898h9.858c18.745-.016 35.735-7.628 48.023-19.924 12.288-12.304 19.892-29.292 19.892-48.047 0-37.515-30.408-67.938-67.915-67.969v-.008h-8.858"/>
        <path id="prefix__u" d="M175.087.313c-51.183 0-93.19 31.313-97.557 71.22h-9.059v.008C30.979 71.588.594 102.003.594 139.511c0 37.516 30.385 67.914 67.877 67.97l8.412.107 6.71 6.806c20.17 22.44 53.52 37.099 91.26 37.099 41.009 0 76.844-17.323 96.21-43.114.193-.302.395-.597.587-.898h9.858c18.745-.016 35.735-7.628 48.023-19.924 12.288-12.304 19.892-29.292 19.892-48.047 0-37.515-30.408-67.938-67.915-67.969v-.008h-8.858"/>
        <path id="prefix__w" d="M175.087.313c-51.183 0-93.19 31.313-97.557 71.22h-9.059v.008C30.979 71.588.594 102.003.594 139.511c0 37.516 30.385 67.914 67.877 67.97l8.412.107 6.71 6.806c20.17 22.44 53.52 37.099 91.26 37.099 41.009 0 76.844-17.323 96.21-43.114.193-.302.395-.597.587-.898h9.858c18.745-.016 35.735-7.628 48.023-19.924 12.288-12.304 19.892-29.292 19.892-48.047 0-37.515-30.408-67.938-67.915-67.969v-.008h-8.858"/>
        <path id="prefix__y" d="M175.087.313c-51.183 0-93.19 31.313-97.557 71.22h-9.059v.008C30.979 71.588.594 102.003.594 139.511c0 37.516 30.385 67.914 67.877 67.97l8.412.107 6.71 6.806c20.17 22.44 53.52 37.099 91.26 37.099 41.009 0 76.844-17.323 96.21-43.114.193-.302.395-.597.587-.898h9.858c18.745-.016 35.735-7.628 48.023-19.924 12.288-12.304 19.892-29.292 19.892-48.047 0-37.515-30.408-67.938-67.915-67.969v-.008h-8.858"/>
        <path id="prefix__A" d="M175.087.313c-51.183 0-93.19 31.313-97.557 71.22h-9.059v.008C30.979 71.588.594 102.003.594 139.511c0 37.516 30.385 67.914 67.877 67.97l8.412.107 6.71 6.806c20.17 22.44 53.52 37.099 91.26 37.099 41.009 0 76.844-17.323 96.21-43.114.193-.302.395-.597.587-.898h9.858c18.745-.016 35.735-7.628 48.023-19.924 12.288-12.304 19.892-29.292 19.892-48.047 0-37.515-30.408-67.938-67.915-67.969v-.008h-8.858"/>
        <path id="prefix__C" d="M175.087.313c-51.183 0-93.19 31.313-97.557 71.22h-9.059v.008C30.979 71.588.594 102.003.594 139.511c0 37.516 30.385 67.914 67.877 67.97l8.412.107 6.71 6.806c20.17 22.44 53.52 37.099 91.26 37.099 41.009 0 76.844-17.323 96.21-43.114.193-.302.395-.597.587-.898h9.858c18.745-.016 35.735-7.628 48.023-19.924 12.288-12.304 19.892-29.292 19.892-48.047 0-37.515-30.408-67.938-67.915-67.969v-.008h-8.858"/>
        <path id="prefix__E" d="M175.087.313c-51.183 0-93.19 31.313-97.557 71.22h-9.059v.008C30.979 71.588.594 102.003.594 139.511c0 37.516 30.385 67.914 67.877 67.97l8.412.107 6.71 6.806c20.17 22.44 53.52 37.099 91.26 37.099 41.009 0 76.844-17.323 96.21-43.114.193-.302.395-.597.587-.898h9.858c18.745-.016 35.735-7.628 48.023-19.924 12.288-12.304 19.892-29.292 19.892-48.047 0-37.515-30.408-67.938-67.915-67.969v-.008h-8.858"/>
        <path id="prefix__G" d="M175.087.313c-51.183 0-93.19 31.313-97.557 71.22h-9.059v.008C30.979 71.588.594 102.003.594 139.511c0 37.516 30.385 67.914 67.877 67.97l8.412.107 6.71 6.806c20.17 22.44 53.52 37.099 91.26 37.099 41.009 0 76.844-17.323 96.21-43.114.193-.302.395-.597.587-.898h9.858c18.745-.016 35.735-7.628 48.023-19.924 12.288-12.304 19.892-29.292 19.892-48.047 0-37.515-30.408-67.938-67.915-67.969v-.008h-8.858"/>
        <path id="prefix__I" d="M175.087.313c-51.183 0-93.19 31.313-97.557 71.22h-9.059v.008C30.979 71.588.594 102.003.594 139.511c0 37.516 30.385 67.914 67.877 67.97l8.412.107 6.71 6.806c20.17 22.44 53.52 37.099 91.26 37.099 41.009 0 76.844-17.323 96.21-43.114.193-.302.395-.597.587-.898h9.858c18.745-.016 35.735-7.628 48.023-19.924 12.288-12.304 19.892-29.292 19.892-48.047 0-37.515-30.408-67.938-67.915-67.969v-.008h-8.858"/>
        <path id="prefix__K" d="M175.087.313c-51.183 0-93.19 31.313-97.557 71.22h-9.059v.008C30.979 71.588.594 102.003.594 139.511c0 37.516 30.385 67.914 67.877 67.97l8.412.107 6.71 6.806c20.17 22.44 53.52 37.099 91.26 37.099 41.009 0 76.844-17.323 96.21-43.114.193-.302.395-.597.587-.898h9.858c18.745-.016 35.735-7.628 48.023-19.924 12.288-12.304 19.892-29.292 19.892-48.047 0-37.515-30.408-67.938-67.915-67.969v-.008h-8.858"/>
        <path id="prefix__M" d="M175.087.313c-51.183 0-93.19 31.313-97.557 71.22h-9.059v.008C30.979 71.588.594 102.003.594 139.511c0 37.516 30.385 67.914 67.877 67.97l8.412.107 6.71 6.806c20.17 22.44 53.52 37.099 91.26 37.099 41.009 0 76.844-17.323 96.21-43.114.193-.302.395-.597.587-.898h9.858c18.745-.016 35.735-7.628 48.023-19.924 12.288-12.304 19.892-29.292 19.892-48.047 0-37.515-30.408-67.938-67.915-67.969v-.008h-8.858"/>
        <path id="prefix__O" d="M175.087.313c-51.183 0-93.19 31.313-97.557 71.22h-9.059v.008C30.979 71.588.594 102.003.594 139.511c0 37.516 30.385 67.914 67.877 67.97l8.412.107 6.71 6.806c20.17 22.44 53.52 37.099 91.26 37.099 41.009 0 76.844-17.323 96.21-43.114.193-.302.395-.597.587-.898h9.858c18.745-.016 35.735-7.628 48.023-19.924 12.288-12.304 19.892-29.292 19.892-48.047 0-37.515-30.408-67.938-67.915-67.969v-.008h-8.858"/>
        <path id="prefix__Q" d="M175.087.313c-51.183 0-93.19 31.313-97.557 71.22h-9.059v.008C30.979 71.588.594 102.003.594 139.511c0 37.516 30.385 67.914 67.877 67.97l8.412.107 6.71 6.806c20.17 22.44 53.52 37.099 91.26 37.099 41.009 0 76.844-17.323 96.21-43.114.193-.302.395-.597.587-.898h9.858c18.745-.016 35.735-7.628 48.023-19.924 12.288-12.304 19.892-29.292 19.892-48.047 0-37.515-30.408-67.938-67.915-67.969v-.008h-8.858"/>
        <path id="prefix__S" d="M175.087.313c-51.183 0-93.19 31.313-97.557 71.22h-9.059v.008C30.979 71.588.594 102.003.594 139.511c0 37.516 30.385 67.914 67.877 67.97l8.412.107 6.71 6.806c20.17 22.44 53.52 37.099 91.26 37.099 41.009 0 76.844-17.323 96.21-43.114.193-.302.395-.597.587-.898h9.858c18.745-.016 35.735-7.628 48.023-19.924 12.288-12.304 19.892-29.292 19.892-48.047 0-37.515-30.408-67.938-67.915-67.969v-.008h-8.858"/>
        <path id="prefix__U" d="M175.087.313c-51.183 0-93.19 31.313-97.557 71.22h-9.059v.008C30.979 71.588.594 102.003.594 139.511c0 37.516 30.385 67.914 67.877 67.97l8.412.107 6.71 6.806c20.17 22.44 53.52 37.099 91.26 37.099 41.009 0 76.844-17.323 96.21-43.114.193-.302.395-.597.587-.898h9.858c18.745-.016 35.735-7.628 48.023-19.924 12.288-12.304 19.892-29.292 19.892-48.047 0-37.515-30.408-67.938-67.915-67.969v-.008h-8.858"/>
        <path id="prefix__W" d="M175.087.313c-51.183 0-93.19 31.313-97.557 71.22h-9.059v.008C30.979 71.588.594 102.003.594 139.511c0 37.516 30.385 67.914 67.877 67.97l8.412.107 6.71 6.806c20.17 22.44 53.52 37.099 91.26 37.099 41.009 0 76.844-17.323 96.21-43.114.193-.302.395-.597.587-.898h9.858c18.745-.016 35.735-7.628 48.023-19.924 12.288-12.304 19.892-29.292 19.892-48.047 0-37.515-30.408-67.938-67.915-67.969v-.008h-8.858"/>
        <path id="prefix__Y" d="M175.087.313c-51.183 0-93.19 31.313-97.557 71.22h-9.059v.008C30.979 71.588.594 102.003.594 139.511c0 37.516 30.385 67.914 67.877 67.97l8.412.107 6.71 6.806c20.17 22.44 53.52 37.099 91.26 37.099 41.009 0 76.844-17.323 96.21-43.114.193-.302.395-.597.587-.898h9.858c18.745-.016 35.735-7.628 48.023-19.924 12.288-12.304 19.892-29.292 19.892-48.047 0-37.515-30.408-67.938-67.915-67.969v-.008h-8.858"/>
        <path id="prefix__aa" d="M175.087.313c-51.183 0-93.19 31.313-97.557 71.22h-9.059v.008C30.979 71.588.594 102.003.594 139.511c0 37.516 30.385 67.914 67.877 67.97l8.412.107 6.71 6.806c20.17 22.44 53.52 37.099 91.26 37.099 41.009 0 76.844-17.323 96.21-43.114.193-.302.395-.597.587-.898h9.858c18.745-.016 35.735-7.628 48.023-19.924 12.288-12.304 19.892-29.292 19.892-48.047 0-37.515-30.408-67.938-67.915-67.969v-.008h-8.858"/>
        <path id="prefix__ac" d="M175.087.313c-51.183 0-93.19 31.313-97.557 71.22h-9.059v.008C30.979 71.588.594 102.003.594 139.511c0 37.516 30.385 67.914 67.877 67.97l8.412.107 6.71 6.806c20.17 22.44 53.52 37.099 91.26 37.099 41.009 0 76.844-17.323 96.21-43.114.193-.302.395-.597.587-.898h9.858c18.745-.016 35.735-7.628 48.023-19.924 12.288-12.304 19.892-29.292 19.892-48.047 0-37.515-30.408-67.938-67.915-67.969v-.008h-8.858"/>
        <path id="prefix__ae" d="M175.087.313c-51.183 0-93.19 31.313-97.557 71.22h-9.059v.008C30.979 71.588.594 102.003.594 139.511c0 37.516 30.385 67.914 67.877 67.97l8.412.107 6.71 6.806c20.17 22.44 53.52 37.099 91.26 37.099 41.009 0 76.844-17.323 96.21-43.114.193-.302.395-.597.587-.898h9.858c18.745-.016 35.735-7.628 48.023-19.924 12.288-12.304 19.892-29.292 19.892-48.047 0-37.515-30.408-67.938-67.915-67.969v-.008h-8.858"/>
        <path id="prefix__ag" d="M175.087.313c-51.183 0-93.19 31.313-97.557 71.22h-9.059v.008C30.979 71.588.594 102.003.594 139.511c0 37.516 30.385 67.914 67.877 67.97l8.412.107 6.71 6.806c20.17 22.44 53.52 37.099 91.26 37.099 41.009 0 76.844-17.323 96.21-43.114.193-.302.395-.597.587-.898h9.858c18.745-.016 35.735-7.628 48.023-19.924 12.288-12.304 19.892-29.292 19.892-48.047 0-37.515-30.408-67.938-67.915-67.969v-.008h-8.858"/>
        <path id="prefix__ai" d="M175.087.313c-51.183 0-93.19 31.313-97.557 71.22h-9.059v.008C30.979 71.588.594 102.003.594 139.511c0 37.516 30.385 67.914 67.877 67.97l8.412.107 6.71 6.806c20.17 22.44 53.52 37.099 91.26 37.099 41.009 0 76.844-17.323 96.21-43.114.193-.302.395-.597.587-.898h9.858c18.745-.016 35.735-7.628 48.023-19.924 12.288-12.304 19.892-29.292 19.892-48.047 0-37.515-30.408-67.938-67.915-67.969v-.008h-8.858C268.283 31.626 226.277.313 175.087.313z"/>
        <path id="prefix__ak" d="M175.087.313c-51.183 0-93.19 31.313-97.557 71.22h-9.059v.008C30.979 71.588.594 102.003.594 139.511c0 37.516 30.385 67.914 67.877 67.97l8.412.107 6.71 6.806c20.17 22.44 53.52 37.099 91.26 37.099 41.009 0 76.844-17.323 96.21-43.114.193-.302.395-.597.587-.898h9.858c18.745-.016 35.735-7.628 48.023-19.924 12.288-12.304 19.892-29.292 19.892-48.047 0-37.515-30.408-67.938-67.915-67.969v-.008h-8.858C268.283 31.626 226.277.313 175.087.313z"/>
        <path id="prefix__am" d="M175.087.313c-51.183 0-93.19 31.313-97.557 71.22h-9.059v.008C30.979 71.588.594 102.003.594 139.511c0 37.516 30.385 67.914 67.877 67.97l8.412.107 6.71 6.806c20.17 22.44 53.52 37.099 91.26 37.099 41.009 0 76.844-17.323 96.21-43.114.193-.302.395-.597.587-.898h9.858c18.745-.016 35.735-7.628 48.023-19.924 12.288-12.304 19.892-29.292 19.892-48.047 0-37.515-30.408-67.938-67.915-67.969v-.008h-8.858"/>
        <path id="prefix__ao" d="M175.087.313c-51.183 0-93.19 31.313-97.557 71.22h-9.059v.008C30.979 71.588.594 102.003.594 139.511c0 37.516 30.385 67.914 67.877 67.97l8.412.107 6.71 6.806c20.17 22.44 53.52 37.099 91.26 37.099 41.009 0 76.844-17.323 96.21-43.114.193-.302.395-.597.587-.898h9.858c18.745-.016 35.735-7.628 48.023-19.924 12.288-12.304 19.892-29.292 19.892-48.047 0-37.515-30.408-67.938-67.915-67.969v-.008h-8.858"/>
        <path id="prefix__aq" d="M175.087.313c-51.183 0-93.19 31.313-97.557 71.22h-9.059v.008C30.979 71.588.594 102.003.594 139.511c0 37.516 30.385 67.914 67.877 67.97l8.412.107 6.71 6.806c20.17 22.44 53.52 37.099 91.26 37.099 41.009 0 76.844-17.323 96.21-43.114.193-.302.395-.597.587-.898h9.858c18.745-.016 35.735-7.628 48.023-19.924 12.288-12.304 19.892-29.292 19.892-48.047 0-37.515-30.408-67.938-67.915-67.969v-.008h-8.858"/>
        <path id="prefix__as" d="M175.087.313c-51.183 0-93.19 31.313-97.557 71.22h-9.059v.008C30.979 71.588.594 102.003.594 139.511c0 37.516 30.385 67.914 67.877 67.97l8.412.107 6.71 6.806c20.17 22.44 53.52 37.099 91.26 37.099 41.009 0 76.844-17.323 96.21-43.114.193-.302.395-.597.587-.898h9.858c18.745-.016 35.735-7.628 48.023-19.924 12.288-12.304 19.892-29.292 19.892-48.047 0-37.515-30.408-67.938-67.915-67.969v-.008h-8.858"/>
        <path id="prefix__au" d="M175.087.313c-51.183 0-93.19 31.313-97.557 71.22h-9.059v.008C30.979 71.588.594 102.003.594 139.511c0 37.516 30.385 67.914 67.877 67.97l8.412.107 6.71 6.806c20.17 22.44 53.52 37.099 91.26 37.099 41.009 0 76.844-17.323 96.21-43.114.193-.302.395-.597.587-.898h9.858c18.745-.016 35.735-7.628 48.023-19.924 12.288-12.304 19.892-29.292 19.892-48.047 0-37.515-30.408-67.938-67.915-67.969v-.008h-8.858"/>
        <path id="prefix__aw" d="M175.087.313c-51.183 0-93.19 31.313-97.557 71.22h-9.059v.008C30.979 71.588.594 102.003.594 139.511c0 37.516 30.385 67.914 67.877 67.97l8.412.107 6.71 6.806c20.17 22.44 53.52 37.099 91.26 37.099 41.009 0 76.844-17.323 96.21-43.114.193-.302.395-.597.587-.898h9.858c18.745-.016 35.735-7.628 48.023-19.924 12.288-12.304 19.892-29.292 19.892-48.047 0-37.515-30.408-67.938-67.915-67.969v-.008h-8.858"/>
        <path id="prefix__ay" d="M175.087.313c-51.183 0-93.19 31.313-97.557 71.22h-9.059v.008C30.979 71.588.594 102.003.594 139.511c0 37.516 30.385 67.914 67.877 67.97l8.412.107 6.71 6.806c20.17 22.44 53.52 37.099 91.26 37.099 41.009 0 76.844-17.323 96.21-43.114.193-.302.395-.597.587-.898h9.858c18.745-.016 35.735-7.628 48.023-19.924 12.288-12.304 19.892-29.292 19.892-48.047 0-37.515-30.408-67.938-67.915-67.969v-.008h-8.858"/>
        <path id="prefix__aA" d="M175.087.313c-51.183 0-93.19 31.313-97.557 71.22h-9.059v.008C30.979 71.588.594 102.003.594 139.511c0 37.516 30.385 67.914 67.877 67.97l8.412.107 6.71 6.806c20.17 22.44 53.52 37.099 91.26 37.099 41.009 0 76.844-17.323 96.21-43.114.193-.302.395-.597.587-.898h9.858c18.745-.016 35.735-7.628 48.023-19.924 12.288-12.304 19.892-29.292 19.892-48.047 0-37.515-30.408-67.938-67.915-67.969v-.008h-8.858"/>
        <path id="prefix__aC" d="M175.087.313c-51.183 0-93.19 31.313-97.557 71.22h-9.059v.008C30.979 71.588.594 102.003.594 139.511c0 37.516 30.385 67.914 67.877 67.97l8.412.107 6.71 6.806c20.17 22.44 53.52 37.099 91.26 37.099 41.009 0 76.844-17.323 96.21-43.114.193-.302.395-.597.587-.898h9.858c18.745-.016 35.735-7.628 48.023-19.924 12.288-12.304 19.892-29.292 19.892-48.047 0-37.515-30.408-67.938-67.915-67.969v-.008h-8.858"/>
        <path id="prefix__aE" d="M175.087.313c-51.183 0-93.19 31.313-97.557 71.22h-9.059v.008C30.979 71.588.594 102.003.594 139.511c0 37.516 30.385 67.914 67.877 67.97l8.412.107 6.71 6.806c20.17 22.44 53.52 37.099 91.26 37.099 41.009 0 76.844-17.323 96.21-43.114.193-.302.395-.597.587-.898h9.858c18.745-.016 35.735-7.628 48.023-19.924 12.288-12.304 19.892-29.292 19.892-48.047 0-37.515-30.408-67.938-67.915-67.969v-.008h-8.858"/>
        <path id="prefix__aG" d="M175.087.313c-51.183 0-93.19 31.313-97.557 71.22h-9.059v.008C30.979 71.588.594 102.003.594 139.511c0 37.516 30.385 67.914 67.877 67.97l8.412.107 6.71 6.806c20.17 22.44 53.52 37.099 91.26 37.099 41.009 0 76.844-17.323 96.21-43.114.193-.302.395-.597.587-.898h9.858c18.745-.016 35.735-7.628 48.023-19.924 12.288-12.304 19.892-29.292 19.892-48.047 0-37.515-30.408-67.938-67.915-67.969v-.008h-8.858C268.283 31.626 226.277.313 175.087.313z"/>
        <path id="prefix__aI" d="M175.087.313c-51.183 0-93.19 31.313-97.557 71.22h-9.059v.008C30.979 71.588.594 102.003.594 139.511c0 37.516 30.385 67.914 67.877 67.97l8.412.107 6.71 6.806c20.17 22.44 53.52 37.099 91.26 37.099 41.009 0 76.844-17.323 96.21-43.114.193-.302.395-.597.587-.898h9.858c18.745-.016 35.735-7.628 48.023-19.924 12.288-12.304 19.892-29.292 19.892-48.047 0-37.515-30.408-67.938-67.915-67.969v-.008h-8.858"/>
        <path id="prefix__aK" d="M175.087.313c-51.183 0-93.19 31.313-97.557 71.22h-9.059v.008C30.979 71.588.594 102.003.594 139.511c0 37.516 30.385 67.914 67.877 67.97l8.412.107 6.71 6.806c20.17 22.44 53.52 37.099 91.26 37.099 41.009 0 76.844-17.323 96.21-43.114.193-.302.395-.597.587-.898h9.858c18.745-.016 35.735-7.628 48.023-19.924 12.288-12.304 19.892-29.292 19.892-48.047 0-37.515-30.408-67.938-67.915-67.969v-.008h-8.858"/>
        <path id="prefix__aM" d="M175.087.313c-51.183 0-93.19 31.313-97.557 71.22h-9.059v.008C30.979 71.588.594 102.003.594 139.511c0 37.516 30.385 67.914 67.877 67.97l8.412.107 6.71 6.806c20.17 22.44 53.52 37.099 91.26 37.099 41.009 0 76.844-17.323 96.21-43.114.193-.302.395-.597.587-.898h9.858c18.745-.016 35.735-7.628 48.023-19.924 12.288-12.304 19.892-29.292 19.892-48.047 0-37.515-30.408-67.938-67.915-67.969v-.008h-8.858"/>
        <path id="prefix__aO" d="M175.087.313c-51.183 0-93.19 31.313-97.557 71.22h-9.059v.008C30.979 71.588.594 102.003.594 139.511c0 37.516 30.385 67.914 67.877 67.97l8.412.107 6.71 6.806c20.17 22.44 53.52 37.099 91.26 37.099 41.009 0 76.844-17.323 96.21-43.114.193-.302.395-.597.587-.898h9.858c18.745-.016 35.735-7.628 48.023-19.924 12.288-12.304 19.892-29.292 19.892-48.047 0-37.515-30.408-67.938-67.915-67.969v-.008h-8.858"/>
        <path id="prefix__aQ" d="M174.493 0c-51.183 0-93.19 31.313-97.557 71.22h-9.059v.009C30.385 71.275 0 101.69 0 139.197c0 37.517 30.385 67.916 67.877 67.971l8.412.107 6.71 6.807c20.17 22.44 53.52 37.098 91.26 37.098 41.009 0 76.844-17.323 96.21-43.114.193-.302.395-.596.587-.898h9.858c18.745-.016 35.735-7.628 48.023-19.924 12.288-12.304 19.892-29.292 19.892-48.047 0-37.515-30.408-67.938-67.915-67.968v-.008h-8.858"/>
        <path id="prefix__aW" d="M0.557 0.948L177.796 0.948 177.796 9.848 0.557 9.848z"/>
        <linearGradient id="prefix__aS" x1="81.908%" x2="-38.894%" y1="74.229%" y2="85.562%">
            <stop offset="0%" stop-color="#7865BE"/>
            <stop offset="0%" stop-color="#7865BE"/>
            <stop offset="100%" stop-color="#A38CBE"/>
        </linearGradient>
        <linearGradient id="prefix__aT" x1="52.728%" x2="17.609%" y1="74.423%" y2="0%">
            <stop offset="0%" stop-color="#5549B1"/>
            <stop offset="100%" stop-color="#A38CBE"/>
        </linearGradient>
        <linearGradient id="prefix__aU" x1="81.908%" x2="-39.923%" y1="68.602%" y2="15.167%">
            <stop offset="0%" stop-color="#A38CBE"/>
            <stop offset="100%" stop-color="#7865BE"/>
        </linearGradient>
        <linearGradient id="prefix__aV" x1="46.669%" x2="116.12%" y1="25.419%" y2="3.55%">
            <stop offset="0%" stop-color="#7865BE"/>
            <stop offset="100%" stop-color="#A38CBE"/>
        </linearGradient>
        <linearGradient id="prefix__aY" x1="69.216%" x2="43.04%" y1="46.288%" y2="46.455%">
            <stop offset="0%" stop-color="#7865BE"/>
            <stop offset="100%" stop-color="#A38CBE"/>
        </linearGradient>
        <linearGradient id="prefix__aZ" x1="59.206%" x2="27.682%" y1="74.423%" y2="42.432%">
            <stop offset="0%" stop-color="#7865BE"/>
            <stop offset="100%" stop-color="#A38CBE"/>
        </linearGradient>
    </defs>
    <g fill="none" fill-rule="evenodd">
        <path fill="#E3F3F5" d="M281.317 71.542v-.008h-8.842C268.115 31.626 226.18.312 175.077.312c-51.094 0-93.03 31.314-97.39 71.222h-9.043v.008C31.216 71.589.884 102.003.884 139.51c0 37.516 30.332 67.916 67.76 67.97h6.254l8.843 6.914c20.136 22.44 53.429 37.098 91.104 37.098 40.938 0 76.712-17.322 96.045-43.114.192-.303.394-.597.587-.898h9.84c18.715-.015 35.674-7.627 47.94-19.924 12.269-12.304 19.86-29.292 19.86-48.046 0-37.516-30.355-67.938-67.8-67.97"/>
        <mask id="prefix__b" fill="#fff">
            <use xlink:href="#prefix__a"/>
        </mask>
        <path fill="#E3F3F5" d="M281.508 71.542v-.008h-8.858C268.283 31.626 226.276.312 175.087.312c-51.183 0-93.19 31.314-97.557 71.222h-9.06v.008C30.979 71.588.596 102.003.596 139.51c0 37.517 30.383 67.916 67.876 67.97h6.264l8.858 6.915c20.17 22.44 53.52 37.098 91.261 37.098 41.008 0 76.843-17.323 96.209-43.115.193-.302.394-.596.588-.898h9.857c18.746-.015 35.735-7.626 48.023-19.923 12.288-12.304 19.892-29.292 19.892-48.047 0-37.515-30.407-67.938-67.915-67.968" mask="url(#prefix__b)"/>
        <mask id="prefix__d" fill="#fff">
            <use xlink:href="#prefix__c"/>
        </mask>
        <path fill="#6D9CF4" d="M-16.673 154.321c-5.116 37.195 8.058 67.502 59.226 63.867 56.09-3.984 33.631 43.45 72.287 54.16 74.553 20.654 63.687 8.906 94.243 4.697 25.674-3.536 28.887 70.467 118.126-50.82 12.256-16.66 24.345-45.552 27.37-71.904H-16.673z" mask="url(#prefix__d)"/>
        <mask id="prefix__f" fill="#fff">
            <use xlink:href="#prefix__e"/>
        </mask>
        <path fill="#FFF" d="M349.852 128.501s-63.96 2.363-66.717 0c-2.756-2.362 11.027-.393 14.571-2.362 3.545-1.97 7.089-11.19 12.602-9.534 5.514 1.657 2.93 7.564 7.372 2.051s9.631-24.862 19.442-20.11c9.81 4.75 6.193 9.87 11.744 11.446 5.55 1.575 6.102-3.938 9.763 0 3.662 3.938 2.617 10.96 5.108 11.19 2.492.23 1.796-4.89 8.642-2.133 6.846 2.757 2.888 4.726 8.215 4.726s19.652 3.151 17.018 3.544c-2.634.395-43.469 1.034-47.76 1.182" mask="url(#prefix__f)"/>
        <mask id="prefix__h" fill="#fff">
            <use xlink:href="#prefix__g"/>
        </mask>
        <path fill="#FFF" d="M93.47 131.289s54.344-.352 54.986-.801c.642-.448-3.32.008-10.07-1.944-6.749-1.95-3.586-9.946-11-9.665-7.413.28-4.618 8.276-11.328 7.78-6.71-.497-3.96-6.243-9.237-5.308-5.275.934-1.304 7.637-5.704 7.193-4.4-.442-28.336 2.91-7.647 2.745" mask="url(#prefix__h)"/>
        <mask id="prefix__j" fill="#fff">
            <use xlink:href="#prefix__i"/>
        </mask>
        <path fill="#FFF" d="M231.74 74.188s54.345-.352 54.987-.8c.642-.45-3.321.007-10.07-1.944-6.748-1.951-3.587-9.945-11-9.666-7.413.28-4.619 8.276-11.328 7.78-6.71-.496-3.961-6.242-9.237-5.308-5.275.934-1.305 7.637-5.705 7.194-4.4-.443-28.336 2.91-7.646 2.744" mask="url(#prefix__j)"/>
        <mask id="prefix__l" fill="#fff">
            <use xlink:href="#prefix__k"/>
        </mask>
        <path fill="#FFF" d="M-34.118 123.596s54.345-.352 54.987-.8c.641-.45-3.32.007-10.07-1.944-6.749-1.951-3.587-9.947-11-9.666-7.414.28-4.618 8.276-11.328 7.78-6.711-.497-3.962-6.243-9.237-5.308-5.275.934-1.305 7.637-5.705 7.194-4.4-.444-28.336 2.91-7.647 2.744" mask="url(#prefix__l)"/>
        <mask id="prefix__n" fill="#fff">
            <use xlink:href="#prefix__m"/>
        </mask>
        <path fill="#FFF" d="M207.374 103.723c0 13.655-11.07 24.726-24.727 24.726-13.655 0-24.725-11.07-24.725-24.726 0-13.656 11.07-24.726 24.725-24.726 13.657 0 24.727 11.07 24.727 24.726" mask="url(#prefix__n)"/>
        <mask id="prefix__p" fill="#fff">
            <use xlink:href="#prefix__o"/>
        </mask>
        <path fill="#FFF" d="M53.802 83.175s-49.021 1.811-51.135 0c-2.112-1.81 8.453-.301 11.169-1.81 2.716-1.51 5.433-8.578 9.658-7.308 4.226 1.27 2.245 5.798 5.65 1.572 3.405-4.225 7.382-19.055 14.901-15.413 7.52 3.642 4.747 7.565 9.001 8.773 4.253 1.207 4.677-3.019 7.484 0 2.806 3.018 2.004 8.4 3.914 8.576 1.91.177 1.377-3.746 6.624-1.634 5.247 2.113 2.213 3.622 6.295 3.622 4.083 0 15.063 2.415 13.044 2.717-2.019.301-33.315.791-36.605.905" mask="url(#prefix__p)"/>
        <mask id="prefix__r" fill="#fff">
            <use xlink:href="#prefix__q"/>
        </mask>
        <path fill="#FFFAEF" d="M194.999 158.405s8.896.002 6.905.604c-2.394.724-8.893-.28-6.905-.604" mask="url(#prefix__r)"/>
        <mask id="prefix__t" fill="#fff">
            <use xlink:href="#prefix__s"/>
        </mask>
        <path fill="#FFFAEF" d="M204.235 158.405s8.897.002 6.905.604c-2.394.724-8.893-.28-6.905-.604" mask="url(#prefix__t)"/>
        <mask id="prefix__v" fill="#fff">
            <use xlink:href="#prefix__u"/>
        </mask>
        <path fill="#FFFAEF" d="M211.804 157.114s8.897.002 6.906.605c-2.395.724-8.894-.282-6.906-.605" mask="url(#prefix__v)"/>
        <mask id="prefix__x" fill="#fff">
            <use xlink:href="#prefix__w"/>
        </mask>
        <path fill="#FFFAEF" d="M190.311 160.663s8.897.002 6.906.603c-2.395.725-8.893-.28-6.906-.603" mask="url(#prefix__x)"/>
        <mask id="prefix__z" fill="#fff">
            <use xlink:href="#prefix__y"/>
        </mask>
        <path fill="#FFFAEF" d="M182.077 159.802s8.897.002 6.906.604c-2.395.724-8.894-.282-6.906-.604" mask="url(#prefix__z)"/>
        <mask id="prefix__B" fill="#fff">
            <use xlink:href="#prefix__A"/>
        </mask>
        <path fill="#FFFAEF" d="M171.232 161.953s8.896.002 6.905.603c-2.394.725-8.893-.28-6.905-.603" mask="url(#prefix__B)"/>
        <mask id="prefix__D" fill="#fff">
            <use xlink:href="#prefix__C"/>
        </mask>
        <path fill="#FFFAEF" d="M164.297 158.852s8.897-.042 6.91.57c-2.392.737-8.896-.237-6.91-.57" mask="url(#prefix__D)"/>
        <mask id="prefix__F" fill="#fff">
            <use xlink:href="#prefix__E"/>
        </mask>
        <path fill="#FFFAEF" d="M150.937 158.948s8.898.002 6.907.604c-2.395.724-8.894-.282-6.907-.604" mask="url(#prefix__F)"/>
        <g>
            <mask id="prefix__H" fill="#fff">
                <use xlink:href="#prefix__G"/>
            </mask>
            <path fill="#FFFAEF" d="M143.877 158.518s6.053.001 4.698.603c-1.63.725-6.05-.28-4.698-.603" mask="url(#prefix__H)"/>
        </g>
        <g>
            <mask id="prefix__J" fill="#fff">
                <use xlink:href="#prefix__I"/>
            </mask>
            <path fill="#FFFAEF" d="M158.523 157.114s6.052.002 4.697.605c-1.629.724-6.05-.282-4.697-.605" mask="url(#prefix__J)"/>
        </g>
        <g>
            <mask id="prefix__L" fill="#fff">
                <use xlink:href="#prefix__K"/>
            </mask>
            <path fill="#FFFAEF" d="M192.936 155.866s6.052.001 4.697.604c-1.629.724-6.05-.28-4.697-.604" mask="url(#prefix__L)"/>
        </g>
        <g>
            <mask id="prefix__N" fill="#fff">
                <use xlink:href="#prefix__M"/>
            </mask>
            <path fill="#FFFAEF" d="M198.084 163.138s6.053.002 4.698.605c-1.629.724-6.05-.282-4.698-.605" mask="url(#prefix__N)"/>
        </g>
        <g>
            <mask id="prefix__P" fill="#fff">
                <use xlink:href="#prefix__O"/>
            </mask>
            <path fill="#FFFAEF" d="M185.742 156.683s6.053.002 4.698.605c-1.629.724-6.05-.281-4.698-.605" mask="url(#prefix__P)"/>
        </g>
        <g>
            <mask id="prefix__R" fill="#fff">
                <use xlink:href="#prefix__Q"/>
            </mask>
            <path fill="#FFFAEF" d="M176.643 155.866s6.052.001 4.697.604c-1.629.724-6.05-.28-4.697-.604" mask="url(#prefix__R)"/>
        </g>
        <g>
            <mask id="prefix__T" fill="#fff">
                <use xlink:href="#prefix__S"/>
            </mask>
            <path fill="#FFFAEF" d="M216.916 160.232s6.053.002 4.698.605c-1.629.724-6.05-.281-4.698-.605" mask="url(#prefix__T)"/>
        </g>
        <g>
            <mask id="prefix__V" fill="#fff">
                <use xlink:href="#prefix__U"/>
            </mask>
            <path fill="#FFFAEF" d="M202.675 156.683s6.053.002 4.698.605c-1.63.724-6.05-.281-4.698-.605" mask="url(#prefix__V)"/>
        </g>
        <g>
            <mask id="prefix__X" fill="#fff">
                <use xlink:href="#prefix__W"/>
            </mask>
            <path fill="#FFFAEF" d="M165.376 156.435s6.04-.376 4.726.31c-1.58.824-6.056.096-4.726-.31" mask="url(#prefix__X)"/>
        </g>
        <g>
            <mask id="prefix__Z" fill="#fff">
                <use xlink:href="#prefix__Y"/>
            </mask>
            <path fill="#FFFAEF" d="M148.244 156.683s6.053.002 4.698.605c-1.63.724-6.05-.281-4.698-.605" mask="url(#prefix__Z)"/>
        </g>
        <g>
            <mask id="prefix__ab" fill="#fff">
                <use xlink:href="#prefix__aa"/>
            </mask>
            <path fill="#FFFAEF" d="M158.347 161.953s8.897.002 6.906.603c-2.395.725-8.893-.28-6.906-.603" mask="url(#prefix__ab)"/>
        </g>
        <g>
            <mask id="prefix__ad" fill="#fff">
                <use xlink:href="#prefix__ac"/>
            </mask>
            <path fill="#FFFAEF" d="M182.742 163.569s8.897.001 6.906.604c-2.395.724-8.894-.281-6.906-.604" mask="url(#prefix__ad)"/>
        </g>
        <g>
            <mask id="prefix__af" fill="#fff">
                <use xlink:href="#prefix__ae"/>
            </mask>
            <path fill="#FFFAEF" d="M205.369 162.383s8.896.002 6.905.605c-2.394.723-8.893-.282-6.905-.605" mask="url(#prefix__af)"/>
        </g>
        <g>
            <mask id="prefix__ah" fill="#fff">
                <use xlink:href="#prefix__ag"/>
            </mask>
            <path fill="#FFFAEF" d="M174.012 158.223s8.873-.643 6.93.102c-2.335.896-8.89.364-6.93-.102" mask="url(#prefix__ah)"/>
        </g>
        <g>
            <mask id="prefix__aj" fill="#fff">
                <use xlink:href="#prefix__ai"/>
            </mask>
            <path fill="#8CC3CF" d="M344.851 244.61c-1.863-2.625-14.14-47.95-25.375-71.152l3.994-1.32s18.253 34.093 24.486 62.405l-3.105 10.068z" mask="url(#prefix__aj)"/>
        </g>
        <g>
            <mask id="prefix__al" fill="#fff">
                <use xlink:href="#prefix__ak"/>
            </mask>
            <path fill="#8CC3CF" d="M349.986 231.272c-.424-8.529-.562-65.167-17.17-94.887l4.188.387s19.127 27.12 24.194 87.601l-11.212 6.899z" mask="url(#prefix__al)"/>
        </g>
        <g>
            <mask id="prefix__an" fill="#fff">
                <use xlink:href="#prefix__am"/>
            </mask>
            <path fill="#8CC3CF" d="M321.152 172.253c.116-1.045-9.042.151-12.533 5.402-3.492 5.251-.213 30.913-.213 30.913s4.99-11.947 4.443-13.244c-.546-1.297-.729-2.818-.729-2.818s2.362.97 2.418-.136c.056-1.106 6.31-17.374 6.614-20.117" mask="url(#prefix__an)"/>
        </g>
        <g>
            <mask id="prefix__ap" fill="#fff">
                <use xlink:href="#prefix__ao"/>
            </mask>
            <path fill="#8CC3CF" d="M323.47 172.138c1.424-.15-17.754-6.206-23.486-2.746-5.732 3.46-5.56 24.642-5.152 23.959.407-.682 2.646-6.678 5.794-11.066 3.148-4.389 5.526-8.26 5.526-8.26s15.896-1.738 17.317-1.887" mask="url(#prefix__ap)"/>
        </g>
        <g>
            <mask id="prefix__ar" fill="#fff">
                <use xlink:href="#prefix__aq"/>
            </mask>
            <path fill="#8CC3CF" d="M320.7 174.147c-1.933-.238-6.16-17.008-1.517-18.055 4.644-1.047 20.264 2.37 18.734 2.666-1.53.297-14.474 2.972-14.818 4.402-.343 1.43-.062 11.275-2.4 10.987" mask="url(#prefix__ar)"/>
        </g>
        <g>
            <mask id="prefix__at" fill="#fff">
                <use xlink:href="#prefix__as"/>
            </mask>
            <path fill="#8CC3CF" d="M319.475 173.458s2.936-5.8 10.595-3.293c7.657 2.509 13.877 12.162 14.304 20.734l-8.872-8.843 1.714-1.934s-1.805.887-3.048 1.09c-1.657.27-8.956-8.385-14.693-7.754" mask="url(#prefix__at)"/>
        </g>
        <g>
            <mask id="prefix__av" fill="#fff">
                <use xlink:href="#prefix__au"/>
            </mask>
            <path fill="#8CC3CF" d="M319.87 170.896s6.214-8.712 12.16-7.889c5.946.822 14.647 7.47 17.14 11.727 0 0-11.864-4.515-14.29-5.053-1.464-.324-15.01 1.215-15.01 1.215" mask="url(#prefix__av)"/>
        </g>
        <g>
            <mask id="prefix__ax" fill="#fff">
                <use xlink:href="#prefix__aw"/>
            </mask>
            <path fill="#8CC3CF" d="M334.834 135.951c.525-.912-8.348-3.477-13.648-.06-5.298 3.417-12.555 28.25-12.555 28.25s9.352-8.956 9.37-10.364c.018-1.407.458-2.874.458-2.874s1.775 1.834 2.27.842c.493-.991 12.73-13.401 14.105-15.794" mask="url(#prefix__ax)"/>
        </g>
        <g>
            <mask id="prefix__az" fill="#fff">
                <use xlink:href="#prefix__ay"/>
            </mask>
            <path fill="#8CC3CF" d="M337.004 136.772c1.366.432-13.791-12.787-20.428-11.907-6.637.88-14.948 20.364-14.302 19.9.646-.462 5.095-5.062 9.735-7.826 4.64-2.764 8.369-5.36 8.369-5.36s15.264 4.762 16.626 5.193" mask="url(#prefix__az)"/>
        </g>
        <g>
            <mask id="prefix__aB" fill="#fff">
                <use xlink:href="#prefix__aA"/>
            </mask>
            <path fill="#8CC3CF" d="M333.663 137.506c-1.676-.991 1.154-18.052 5.828-17.156 4.674.897 17.627 10.274 16.106 9.935-1.522-.34-14.456-3.064-15.343-1.89-.885 1.174-4.564 10.31-6.591 9.11" mask="url(#prefix__aB)"/>
        </g>
        <g>
            <mask id="prefix__aD" fill="#fff">
                <use xlink:href="#prefix__aC"/>
            </mask>
            <path fill="#8CC3CF" d="M333.32 136.96s6.924-8.159 12.78-6.84c5.857 1.32 13.969 8.674 16.095 13.125 0 0-11.443-5.495-13.815-6.235-1.432-.446-15.06-.05-15.06-.05" mask="url(#prefix__aD)"/>
        </g>
        <g>
            <mask id="prefix__aF" fill="#fff">
                <use xlink:href="#prefix__aE"/>
            </mask>
            <path fill="#8CC3CF" d="M334.08 136.522s10.532-1.894 14.213 2.847c3.681 4.743 5.264 15.576 4.076 20.365 0 0-5.338-11.518-6.698-13.598-.82-1.254-11.59-9.614-11.59-9.614" mask="url(#prefix__aF)"/>
        </g>
        <g>
            <mask id="prefix__aH" fill="#fff">
                <use xlink:href="#prefix__aG"/>
            </mask>
            <path fill="#8CC3CF" d="M.581 251.664c1.817-4.004 6.51-67.938 15.545-101.95l-5.696-.733s-15.617 50.432-16.623 89.996L.58 251.664z" mask="url(#prefix__aH)"/>
        </g>
        <g>
            <mask id="prefix__aJ" fill="#fff">
                <use xlink:href="#prefix__aI"/>
            </mask>
            <path fill="#8CC3CF" d="M13.566 148.535c-.427-1.372 12.159-2.144 18.2 3.987 6.042 6.13 8.31 41.376 8.31 41.376s-9.79-14.717-9.396-16.598c.396-1.88.247-3.966.247-3.966s-2.912 1.914-3.275.446c-.362-1.47-12.966-21.648-14.086-25.245" mask="url(#prefix__aJ)"/>
        </g>
        <g>
            <mask id="prefix__aL" fill="#fff">
                <use xlink:href="#prefix__aK"/>
            </mask>
            <path fill="#8CC3CF" d="M10.43 148.981c-1.948.17 22.184-12.926 30.765-9.776 8.58 3.151 13.847 31.585 13.123 30.775-.723-.808-5.28-8.263-10.638-13.328-5.359-5.064-9.55-9.635-9.55-9.635s-21.756 1.796-23.7 1.964" mask="url(#prefix__aL)"/>
        </g>
        <g>
            <mask id="prefix__aN" fill="#fff">
                <use xlink:href="#prefix__aM"/>
            </mask>
            <path fill="#8CC3CF" d="M14.664 150.955c2.527-.82 3.842-24.394-2.654-24.592-6.494-.198-26.545 8.434-24.417 8.435 2.129.001 20.172.227 21.003 2.054.83 1.828 3.01 15.095 6.068 14.103" mask="url(#prefix__aN)"/>
        </g>
        <g>
            <mask id="prefix__aP" fill="#fff">
                <use xlink:href="#prefix__aO"/>
            </mask>
            <path fill="#8CC3CF" d="M16.126 149.714s-5.44-7.012-15.053-1.663c-9.614 5.348-15.445 19.902-13.792 31.501l9.597-14.156-2.8-2.147s2.65.722 4.368.67c2.29-.067 9.827-13.562 17.68-14.205" mask="url(#prefix__aP)"/>
        </g>
        <g transform="translate(.884)">
            <mask id="prefix__aR" fill="#fff">
                <use xlink:href="#prefix__aQ"/>
            </mask>
            <path fill="#8CC3CF" d="M14.05 146.383S3.46 136.32-4.298 138.965c-7.756 2.646-17.692 13.813-19.93 20.166 0 0 14.73-9.13 17.843-10.481 1.877-.815 20.433-2.267 20.433-2.267" mask="url(#prefix__aR)"/>
        </g>
        <g>
            <path fill="#FFF" d="M51.114 46.54l-3.022 2.685L33.135 30.91l-1.725-2.112c-6.172 4.84-12.343 9.312-16.633 11.9l1.437 8.062-3.325 2.95-3.72-8.863L.806 38.1l3.327-2.953 7.827 2.387c3.084-3.955 8.255-9.547 13.794-15.11L7.452 3.443 10.473.76l24.12 13.122c1.328-1.234 2.627-2.414 3.864-3.513 12.547-11.14 16.16-7.866 16.16-7.866s2.82 3.972-9.728 15.116c-1.238 1.096-2.562 2.243-3.946 3.415l10.17 25.507z" transform="translate(64.52 53.914)"/>
            <path fill="#8CC3CF" d="M48.664 5.103c-.542.024-1.082.216-1.5.731 0 0 .804.009 1.77.54.526.292.944.76 1.169 1.318.414 1.022.328 1.822.328 1.822.56-.352.815-.868.904-1.402.261-1.596-1.055-3.078-2.671-3.009" transform="translate(64.52 53.914)"/>
        </g>
        <g>
            <path fill="url(#prefix__aS)" d="M37.779 1.046c-2.353 1.16-10.428 5.513-13.262 8.06l.01.006c1.904-.036 3.937.102 6.094.446 7.537 1.17 15.728 7.216 21.034 14.465 2.878 3.94 4.903 8.23 5.522 12.31 2.178-5.897 3.758-16.599 3.533-19.595-.219-2.812-2.016-7.643-6.417-11.447-.722-.634-1.519-1.233-2.393-1.802C48.143 1.073 44.587.263 41.852.263c-1.746 0-3.158.33-4.073.783" transform="translate(175 1.395)"/>
            <path fill="url(#prefix__aT)" d="M57.177 36.333c-.62-4.08-2.644-8.37-5.522-12.31 1.613-5.286 2.802-11.89 2.638-18.732 4.401 3.804 6.198 8.635 6.417 11.447.225 2.995-1.355 13.698-3.533 19.595" transform="translate(175 1.395)"/>
            <path fill="url(#prefix__aU)" d="M2.353 14.968c-2.646 5.501-2.41 10.659-1.41 14.5.876 3.385 2.34 5.743 2.995 6.49C18.465 52.265 38.37 57.106 45.59 59.438c7.231 2.343 20.696-7.58 19.923-20.969-.055-.813-.17-1.66-.34-2.502-.127-.628-.288-1.236-.465-1.874C60.998 21.46 45.362 6.756 31.885 3.873c-2.621-.569-5.087-.9-7.388-1.027-.67-.036-1.325-.055-1.967-.055-9.76.001-16.347 4.205-20.177 12.176" transform="translate(175 1.395)"/>
            <path fill="url(#prefix__aV)" d="M43.04 58.874c-7.218-2.338-24.575-6.61-39.1-22.916-.657-.747-2.121-3.106-2.997-6.49 3.47-3.4 6.652-8.94 9.325-13.851 3.735-6.873 11.563-5.466 27.944.716 13.156 4.965 20.55 13.045 26.497 17.76.176.637.337 1.246.464 1.874.17.842.284 1.689.34 2.502.773 13.39-11.717 23.889-22.472 20.405" transform="translate(175 1.395)"/>
        </g>
        <g>
            <path fill="#3E479B" d="M179.668 67.359c-19.092-3.775-7.372-4.21-11.467-16.655-3.703-11.254-19.774-3.51-19.2-18.238C150.205 1.61 122.88-9.472 106.41 9.28c-19.904 22.662 16.526 31.94 14.747 41.593-3.368 18.287-.942 23.754 7.765 27.698 8.707 3.945 13.352.235 12.552 7.382-.801 7.148-7.57 22.335 6.759 21.888 14.328-.446 9.68 10.262 22.592 11.09 8.927.572 3.998-10.28 17.58-9.162 9.94.82 13.67-18.475 1.486-19.568-12.117-1.086.698-20.682-10.223-22.842" transform="translate(80.455 13.213)"/>
            <path fill="#3E479B" d="M121.158 50.873s-14.84-1.868-19.914-15.594c-4.84-13.089 2.659-26.499 9.398-27.89 6.74-1.392 23.06 39.107 10.516 43.484" transform="translate(80.455 13.213)"/>
            <g transform="translate(80.455 13.213) translate(0 324.015)">
                <mask id="prefix__aX" fill="#fff">
                    <use xlink:href="#prefix__aW"/>
                </mask>
                <path fill="#E4E3F1" d="M.557 5.398c0 2.458 39.677 4.45 88.619 4.45 48.944 0 88.62-1.992 88.62-4.45S138.12.948 89.176.948C40.234.948.557 2.94.557 5.398" mask="url(#prefix__aX)"/>
            </g>
            <path fill="#F9D9EB" d="M83.305 119.318c-1.692-1.574 14.546-16.724 14.546-16.724l6.682-42.784S77.96 79.927 65.377 101.948M163.587 119.318c1.692-1.574-14.546-16.724-14.546-16.724L142.36 59.81s26.573 20.117 39.156 42.138M147.955 322.74h-6.919l-11.858-92.771c8.18.716 16.363.998 24.544 1.546l-5.767 91.225z" transform="translate(80.455 13.213)"/>
            <path fill="#EF92C7" d="M155.468 203.914l-1.746 27.6c-8.182-.546-16.363-.829-24.544-1.545l-3.33-26.055h29.62z" transform="translate(80.455 13.213)"/>
            <path fill="#3E479B" d="M138.173 329.85h25.8s-.184-5.262-4.38-7.11c-.82-.365-1.746-.709-2.72-1.044-4.003-1.357-8.66-2.39-8.66-2.39l-4.143.246-3.265.187s-3.131 4.898-2.632 10.11" transform="translate(80.455 13.213)"/>
            <path fill="#F9D9EB" d="M117.044 228.503c.851.138 1.702.26 2.554.381l-11.997 93.856h-6.919l-6.127-96.914c7.445.62 14.936 1.425 22.489 2.677" transform="translate(80.455 13.213)"/>
            <path fill="#EF92C7" d="M94.555 225.826l-1.386-21.913h29.62l-3.19 24.971c-.852-.122-1.704-.243-2.556-.38-7.553-1.254-15.042-2.058-22.488-2.678" transform="translate(80.455 13.213)"/>
            <path fill="#3E479B" d="M110.464 329.85H84.665s.183-5.262 4.38-7.11c.82-.365 1.745-.709 2.72-1.044 4.002-1.357 8.659-2.39 8.659-2.39l4.143.246 3.266.187s3.13 4.898 2.631 10.11" transform="translate(80.455 13.213)"/>
        </g>
        <g fill="url(#prefix__aY)" transform="translate(163.182 69.35)">
            <path d="M27.101 2.401c-.01.01-.019.01-.028.01-1.84.374-3.633.788-5.357 1.26l-7.17 20.18c-2.61 7.34-2.434 15.382.492 22.602L3.098 133.09.483 152.07h80.372L66.31 46.452c2.927-7.22 3.101-15.262.492-22.602l-7.171-20.18c-1.677-.462-3.42-.865-5.222-1.23l-.143-.03h-.02C50.06 1.554 45.546.993 40.67.786c-4.867.207-9.38.768-13.568 1.615"/>
        </g>
        <g>
            <path fill="url(#prefix__aZ)" d="M80.855 150.099L66.31 44.484c2.926-7.22 3.101-15.263.493-22.603l-7.171-20.18c-1.678-.462-3.42-.866-5.222-1.23 2.347 9.257 3.89 18.722 4.608 28.265.164 2.107.278 4.264-.23 6.313-.67 2.669-2.347 4.944-3.353 7.494-1.974 5.004-1.256 10.657-.488 16.004 1.945 13.759 3.899 27.507 5.844 41.256 1.37 9.641 2.654 19.903-1.265 28.777-1.216 2.767-2.97 5.357-5.395 7.1-3.18 2.305-7.205 2.955-11.085 3.359-5.53.561-11.24.748-16.482-1.142-4.387-1.586-8.211-4.56-12.619-6.097-3.487-1.22-7.243-1.398-10.847-.68L.483 150.1h80.372z" transform="translate(71.59 14.198) translate(91.59 57.121)"/>
            <path fill="#EF92C7" d="M119.72 29.978s-6.53-5.894-8.548-2.385c-2.02 3.509 4.394 11.243 10.311 8.004" transform="translate(71.59 14.198)"/>
            <path fill="#F9D9EB" d="M118.692 57.553c1.13 5.249 11.853 19.716 13.568 19.716 3.545 0 12.505-14.457 13.577-19.706-4.186-.857-8.7-1.419-13.577-1.625-4.868.206-9.38.768-13.568 1.615" transform="translate(71.59 14.198)"/>
            <path fill="#F9D9EB" d="M139.04 60.959h-13.696v-7.566c4.592-1.116 9.151-2.43 13.696-3.754v11.32z" transform="translate(71.59 14.198)"/>
            <path fill="#EF92C7" d="M139.04 44.346v5.293c-4.545 1.325-9.104 2.639-13.696 3.755v-9.048h13.696z" transform="translate(71.59 14.198)"/>
            <path fill="#F9D9EB" d="M144 14.011l-28.835-2.1s-.291 22.643 1.393 29.16c1.295 5.01 9.483 9.052 11.243 9.052 3.508 0 15.42-4.536 16.2-10.782 1.385-11.1 0-25.33 0-25.33" transform="translate(71.59 14.198)"/>
            <path fill="#3E479B" d="M115.83 28.845c-.108.47-.316 1.029-.782 1.097-.59.084-.923-.671-1.039-1.274-.7-3.678-.801-7.475-.296-11.182.16-1.179.884-2.07 2.16-1.73 1.325.354 1.2 1.557 1.19 2.763-.026 3.473-.454 6.95-1.233 10.326" transform="translate(71.59 14.198)"/>
            <path fill="#3E479B" d="M140.851 31.046c-.985-1.562-1.243-3.504-1.166-5.363.055-1.304.264-2.613.763-3.812.626-1.502 1.7-2.833 1.967-4.444-3.546.142-7.162 1.56-10.553.486-1.932-.613-3.642-2.008-5.658-2.16-2.286-.173-4.353 1.278-6.553 1.94-.673.204-1.382.334-2.079.237-.57-.08-1.114-.31-1.602-.622-1.955-1.253-2.91-3.813-2.622-6.162.288-2.35 1.672-4.459 3.463-5.948 1.791-1.489 3.966-2.415 6.175-3.087 3.272-.995 6.75-1.473 10.108-.861 2.724.496 5.32 1.712 7.473 3.497 2.275 1.89 4.095 4.545 4.389 7.535.94.196 1.681.986 2.077 1.883.396.898.498 1.9.57 2.883.295 4.091.124 8.249-.811 12.248-.293 1.252-.55 3.886-2.02 4.137-1.477.252-3.191-1.23-3.92-2.387" transform="translate(71.59 14.198)"/>
            <path fill="#EF92C7" d="M127.306 30.67l-1.97 2.238c-.255.208-.605.384-.794.651-.414.586.287 1.277.74 1.645.517.418 1.14.702 1.825.702.37 0 .241-1.088.245-1.339l.399-3.254c.176-.371-.214-1.01-.445-.643" transform="translate(71.59 14.198)"/>
            <path fill="#3E479B" d="M134.22 25.642c.553-.267 1.142-.313 1.724-.193 1.048.215 2.27 1.132 2.46 2.486.02.14-.115.263-.21.147-.312-.38-.67-.669-1.065-.91-.419-.257-.852-.489-1.32-.583-.407-.083-.835-.052-1.23.098-.204.079-.397.192-.6.274-.197.08-.371.227-.572.29-.11.034-.256-.07-.243-.223.057-.658.582-1.157 1.056-1.386M121.513 25.784c-.521-.233-1.077-.274-1.626-.169-.989.188-2.142.99-2.32 2.17-.02.123.109.231.199.13.293-.333.632-.585 1.004-.796.394-.224.803-.426 1.244-.509.384-.072.789-.046 1.16.087.193.069.375.167.567.238.186.07.35.199.54.253.103.03.241-.06.229-.194-.054-.575-.549-1.01-.997-1.21" transform="translate(71.59 14.198)"/>
            <path fill="#F9D9EB" d="M141.014 32.318s6.023-9.242 8.992-6.54c2.97 2.703-.825 12.088-7.423 10.872M189.456 99.398c7.04 12.32 10.624 26.8 1.805 37.123-24.584 28.774-55.74-46.126-55.74-46.126h5.493s29.745 29.512 31.437 27.938" transform="translate(71.59 14.198)"/>
            <path fill="#FFDCDF" d="M142.44 90.769s3.666-7.665 2.839-8.995c-.828-1.33-2.839 3.385-2.839 3.385s.93-8.705 0-8.947c-.93-.242-2.615 7.279-2.615 7.279s-.197-6.686-1.256-7.285c-1.059-.599-1.059 8.107-1.059 8.107s-2.353-7.497-3.176-7.375c-.823.12.824 7.859.824 7.859s-1.011 2.44.363 5.599c0 0 5.832 2.8 6.92.373" transform="translate(71.59 14.198)"/>
            <path fill="#F9D9EB" d="M75.163 99.398c-7.04 12.32-10.624 26.8-1.804 37.123 24.584 28.774 55.74-46.126 55.74-46.126h-5.493s-29.746 29.512-31.437 27.938" transform="translate(71.59 14.198)"/>
            <path fill="#FFDCDF" d="M122.18 90.769s-3.667-7.665-2.839-8.995c.827-1.33 2.838 3.385 2.838 3.385s-.93-8.705 0-8.947c.931-.242 2.616 7.279 2.616 7.279s.197-6.686 1.256-7.285c1.059-.599 1.059 8.107 1.059 8.107s2.352-7.497 3.176-7.375c.823.12-.825 7.859-.825 7.859s1.012 2.44-.363 5.599c0 0-5.831 2.8-6.919.373" transform="translate(71.59 14.198)"/>
            <path fill="#FFF" d="M146.313 75.733c1.774-1.42 3.403-2.975 5.008-4.59.798-.803 1.603-1.6 2.388-2.416.354-.367.645-.875.376-1.394-.217-.416-.612-.541-1.022-.354-.2.09-.274.28-.261.473-.024.022-.049.06-.105.122-.16.176-.314.357-.471.534l-.892 1.009c-.613.69-1.228 1.38-1.844 2.068-1.234 1.377-2.4 2.801-3.506 4.287-.16.214.161.395.329.261M150.614 80.134c1.49-.44 2.987-.785 4.525-.989.773-.102 1.55-.192 2.328-.242.387-.026.778-.057 1.166-.06.512-.003.773.11 1.086.533.14.19.047.445-.076.606-.325.43-.688.435-1.177.425-.388-.007-.776-.01-1.165-.011-.721-.002-1.441.002-2.162.027-1.485.052-2.974.113-4.456.232-.296.025-.341-.44-.069-.52M108.31 65.311c2.007 1.1 3.935 2.476 5.8 3.81.904.646 1.797 1.304 2.667 1.997.443.35.884.705 1.314 1.071.397.338.893.667 1.122 1.155.033.072-.022.134-.093.124-.496-.07-.928-.415-1.35-.674-.483-.297-.964-.598-1.445-.897-.965-.599-1.923-1.21-2.89-1.804-.968-.596-1.936-1.192-2.912-1.773-.977-.58-1.994-1.1-2.957-1.7-.812-.508-.093-1.768.745-1.309M105.244 74.1c.113-.37.411-.575.786-.476.012.003.022.015.034.02.303.057.595.186.887.282.463.153.931.293 1.396.44.897.282 1.795.56 2.689.857 1.82.605 3.64 1.217 5.436 1.899.266.1.163.494-.117.437-1.843-.373-3.672-.814-5.499-1.265-.878-.217-1.753-.45-2.628-.68-.471-.124-.942-.25-1.413-.372-.415-.109-.926-.133-1.276-.395-.226-.17-.387-.45-.295-.747M110.958 81.231c.356-.133.762-.16 1.135-.218.384-.058.765-.119 1.147-.179.752-.117 1.552-.292 2.311-.194.23.03.344.324.123.466-.654.421-1.448.61-2.185.83-.368.108-.738.217-1.106.328-.409.123-.822.265-1.249.301-.324.028-.613-.28-.649-.588-.04-.352.156-.627.473-.746M148.25 84.216c1.266.287 2.526.585 3.766.974.617.195 1.23.403 1.844.607.6.2 1.316.348 1.855.686.652.408.23 1.473-.521 1.27-.614-.166-1.21-.576-1.787-.853-.564-.27-1.14-.52-1.717-.765-1.182-.502-2.36-1.014-3.562-1.467-.272-.104-.168-.518.122-.452M141.02 67.607c.18-.49.37-.974.556-1.46.097-.25.185-.504.296-.747.068-.146.13-.31.243-.424.12-.125.273-.18.426-.245.27-.115.617.127.68.397.088.38-.009.641-.184.972-.114.216-.248.42-.37.633-.252.438-.497.88-.737 1.325-.488.9-1.011 1.788-1.467 2.705-.11.22-.463.067-.39-.17.309-1.001.585-2.001.947-2.986M132.126 59.607c.14-.139.41-.206.58-.077.338.255.463.503.492.924.028.387.043.776.064 1.164.04.748.066 1.495.085 2.244.04 1.526-.054 3.047-.037 4.571.004.363-.49.338-.532 0-.188-1.5-.487-2.982-.653-4.488-.08-.72-.158-1.439-.217-2.161-.059-.709-.335-1.626.218-2.177M121.472 64.91c.073-.282.378-.462.652-.38.35.103.443.35.577.662.09.21.179.422.274.63.203.447.414.89.62 1.334.414.888.836 1.772 1.258 2.655.128.266-.23.486-.388.234-.517-.826-1.034-1.654-1.559-2.475-.263-.41-.522-.823-.787-1.232-.272-.417-.785-.894-.647-1.428M128.072 42.773c-.193 0-.392-.005-.595-.017-5.057-.31-4.966-3.257-4.966-3.287.014-.284.298-.508.643-.508h.027c.352.013.4.046 4.18-.131 4.17-.196 5.688-.078 6.037.01.339.087.527.383.424.662-.015.034-1.284 3.271-5.75 3.271" transform="translate(71.59 14.198)"/>
            <path fill="#3E479B" d="M120.565 33.015l.137-.001c.527-.004.95-.435.946-.961l-.01-1.16c-.004-.525-.434-.95-.96-.945h-.138c-.526.005-.949.435-.946.962l.01 1.16c.005.525.434.949.961.945M135.222 32.863h.137c.527-.005.95-.435.946-.962l-.01-1.16c-.005-.525-.434-.95-.96-.945l-.138.001c-.527.004-.95.435-.946.962l.01 1.159c.005.526.434.95.96.945" transform="translate(71.59 14.198)"/>
            <path fill="#E3F3F5" d="M0.028 214.837L34.586 247.8 50.282 231.662 15.726 198.699z" transform="translate(71.59 14.198)"/>
            <path fill="#3E479B" d="M7.319 209.953L39.095 240.262 47.152 231.979 15.377 201.669z" transform="translate(71.59 14.198)"/>
            <path fill="#E3F3F5" d="M9.044 201.862L32.7 243.133 52.496 232.222 28.84 190.951z" transform="translate(71.59 14.198)"/>
            <path fill="#3E479B" d="M17.48 199.283L39.231 237.232 49.392 231.632 27.64 193.684z" transform="translate(71.59 14.198)"/>
            <path fill="#383A45" d="M69.61 222.899c-.988 0-1.788-.801-1.788-1.789v-64.829c0-3.907-5.353-7.209-11.69-7.209-6.336 0-11.69 3.302-11.69 7.21v64.828c0 .988-.8 1.789-1.788 1.789s-1.789-.801-1.789-1.789v-64.829c0-5.948 6.849-10.787 15.268-10.787 8.417 0 15.266 4.839 15.266 10.787v64.83c0 .987-.802 1.788-1.789 1.788" transform="translate(71.59 14.198)"/>
            <path fill="#383A45" d="M63.227 152.498H49.038c-1.772 0-3.221-1.45-3.221-3.222v-.716c0-1.771 1.449-3.221 3.221-3.221h14.189c1.772 0 3.221 1.45 3.221 3.221v.716c0 1.772-1.45 3.222-3.221 3.222M40.145 320.477c0 4.408-3.573 7.98-7.98 7.98s-7.98-3.572-7.98-7.98c0-4.407 3.573-7.98 7.98-7.98s7.98 3.573 7.98 7.98M88.08 320.477c0 4.408-3.573 7.98-7.98 7.98-4.408 0-7.98-3.572-7.98-7.98 0-4.407 3.572-7.98 7.98-7.98 4.407 0 7.98 3.573 7.98 7.98" transform="translate(71.59 14.198)"/>
            <path fill="#D0AF73" d="M81.71 317.661H30.555c-6.5 0-11.818-5.318-11.818-11.818v-78.567c0-6.5 5.318-11.818 11.818-11.818H81.71c6.5 0 11.818 5.318 11.818 11.818v78.567c0 6.5-5.318 11.818-11.818 11.818" transform="translate(71.59 14.198)"/>
            <path fill="#C6A166" d="M56.605 305.22h-.945c-1.096 0-1.992-.897-1.992-1.993v-73.335c0-1.097.896-1.993 1.992-1.993h.945c1.096 0 1.992.896 1.992 1.993v73.335c0 1.096-.896 1.994-1.992 1.994M38.544 305.22h-.945c-1.096 0-1.992-.897-1.992-1.993v-73.335c0-1.097.896-1.993 1.992-1.993h.945c1.096 0 1.992.896 1.992 1.993v73.335c0 1.096-.896 1.994-1.992 1.994M73.56 305.22h-.944c-1.096 0-1.993-.897-1.993-1.993v-73.335c0-1.097.897-1.993 1.993-1.993h.944c1.096 0 1.993.896 1.993 1.993v73.335c0 1.096-.897 1.994-1.993 1.994" transform="translate(71.59 14.198)"/>
            <path fill="#C6A166" d="M80.435 245.657H31.829c-2.049 0-3.725-1.676-3.725-3.725v-12.957c0-2.049 1.675-3.724 3.723-3.724h48.608c2.048 0 3.725 1.676 3.725 3.725v12.956c0 2.049-1.677 3.725-3.725 3.725" transform="translate(71.59 14.198)"/>
            <path fill="#FFF" d="M77.412 237.24h-41.05c-.864 0-1.564-.701-1.564-1.564v-.349c0-.862.7-1.562 1.564-1.562h41.05c.863 0 1.563.7 1.563 1.562v.35c0 .862-.7 1.562-1.563 1.562" transform="translate(71.59 14.198)"/>
        </g>
    </g>
</svg>
