<svg width="28" height="28" viewBox="0 0 28 28" fill="none" xmlns="http://www.w3.org/2000/svg">
<path d="M7.74687 13.9955C7.74687 14.2189 7.83749 14.4212 7.98389 14.5676C8.13029 14.714 8.3326 14.8046 8.55597 14.8046L19.444 14.8046C19.891 14.8046 20.2532 14.4423 20.2532 13.9955C20.253 13.5486 19.8908 13.1863 19.444 13.1863L8.55605 13.1863C8.10915 13.1863 7.74694 13.5486 7.74687 13.9955Z" fill="#787DFF"/>
<path d="M25.6952 13.997C25.6953 12.5114 25.1169 11.1149 24.0664 10.0645C23.0159 9.01413 21.6194 8.43572 20.134 8.43572L16.3741 8.43564C15.9272 8.43572 15.565 8.79793 15.5649 9.2449C15.565 9.69156 15.9271 10.054 16.374 10.054L20.134 10.054C21.1872 10.0541 22.1774 10.464 22.9222 11.2088C23.6669 11.9536 24.0769 12.9437 24.0769 13.9969C24.077 15.0501 23.6668 16.0403 22.9221 16.7851C22.1774 17.5298 21.1872 17.9398 20.134 17.9398L16.3741 17.9398C15.9272 17.9399 15.565 18.3021 15.565 18.749C15.565 18.9724 15.6557 19.1748 15.8021 19.3212C15.9485 19.4675 16.1508 19.5582 16.3742 19.5583L20.134 19.5582C21.6195 19.5582 23.0162 18.9798 24.0665 17.9294C25.1168 16.879 25.6954 15.4825 25.6952 13.997Z" fill="#787DFF"/>
<path d="M11.6241 17.9398L7.86408 17.9399C6.81094 17.9398 5.82073 17.5297 5.07609 16.7851C4.33137 16.0404 3.92125 15.0503 3.92125 13.9971C3.92118 11.823 5.69005 10.0541 7.86424 10.0541L11.6241 10.0541C12.0711 10.054 12.4333 9.69182 12.4333 9.24493C12.4332 8.79811 12.0709 8.43582 11.6241 8.43575L7.86416 8.43567C4.79764 8.43575 2.3029 10.9305 2.3029 13.9969C2.30297 15.4823 2.88131 16.8789 3.93178 17.9292C4.98218 18.9796 6.37869 19.5581 7.86416 19.5581L11.6243 19.5581C12.0713 19.5581 12.4335 19.1958 12.4335 18.7489C12.4332 18.3022 12.0711 17.9398 11.6241 17.9398Z" fill="#787DFF"/>
</svg>
