<svg width="6" height="7" viewBox="0 0 6 7" fill="none" xmlns="http://www.w3.org/2000/svg">
<path d="M5.32394 0.811901H5.72535C5.87324 0.811901 6 0.68024 6 0.526635V0.307199C6 0.153594 5.87324 0.0219327 5.72535 0.0219327H0.274648C0.126761 -1.08946e-05 0 0.131651 0 0.285256V0.504691C0 0.658296 0.126761 0.789958 0.274648 0.789958H0.676056C0.697183 1.88714 1.11972 2.8746 1.77465 3.44513C1.11972 4.01566 0.697183 5.04701 0.676056 6.16613H0.274648C0.126761 6.16613 0 6.29779 0 6.4514V6.67084C0 6.82444 0.126761 6.9561 0.274648 6.9561H5.72535C5.87324 6.9561 6 6.82444 6 6.67084V6.4514C6 6.29779 5.87324 6.16613 5.72535 6.16613H5.32394C5.30282 5.04701 4.90141 4.01566 4.22535 3.44513C4.88028 2.89654 5.30282 1.90908 5.32394 0.811901ZM3.48592 3.70845L3.59155 3.77428C4.30986 4.14732 4.79577 5.11284 4.79577 6.21002H1.1831C1.20423 5.11284 1.66901 4.14732 2.38732 3.77428L2.49296 3.70845C2.57746 3.66457 2.64085 3.55485 2.64085 3.46707C2.64085 3.35736 2.57746 3.26958 2.49296 3.22569L2.38732 3.18181C1.71127 2.80877 1.22535 1.86519 1.20423 0.811901H4.8169C4.77465 1.86519 4.30986 2.80877 3.61268 3.15986L3.50704 3.20375C3.42254 3.24764 3.35915 3.33541 3.35915 3.44513C3.33803 3.55485 3.40141 3.66457 3.48592 3.70845Z" fill="#787DFF"/>
<path d="M1.85916 5.92479H4.30987C4.22536 5.31037 3.71832 4.80566 3.08451 4.80566C2.45071 4.80566 1.94367 5.28842 1.85916 5.92479Z" fill="#787DFF"/>
<path d="M3.93004 2.56714H2.09201C2.3244 2.83046 2.64131 3.00601 3.00046 3.00601C3.35962 3.00601 3.69764 2.83046 3.93004 2.56714Z" fill="#787DFF"/>
</svg>
