<svg xmlns="http://www.w3.org/2000/svg" xmlns:xlink="http://www.w3.org/1999/xlink" width="21" height="18" viewBox="0 0 21 18">
    <defs>
        <path id="prefix__a" d="M0 0.161L12.642 0.161 12.642 12.48 0 12.48z"/>
        <path id="prefix__c" d="M0.112 0.129L11.177 0.129 11.177 10.072 0.112 10.072z"/>
        <path id="prefix__e" d="M0 0.161L12.642 0.161 12.642 12.48 0 12.48z"/>
        <path id="prefix__g" d="M0.112 0.129L11.177 0.129 11.177 10.072 0.112 10.072z"/>
    </defs>
    <g fill="none" fill-rule="evenodd">
        <g transform="translate(.947) translate(1 .033)">
            <mask id="prefix__b" fill="#fff">
                <use xlink:href="#prefix__a"/>
            </mask>
            <path fill="#D0AF73" d="M4.131 5.398c-.408 0-.738-.33-.738-.738 0-.407.33-.737.738-.737.407 0 .738.33.738.737 0 .408-.33.738-.738.738m4.785-1.475c.408 0 .738.33.738.737 0 .408-.33.738-.738.738-.407 0-.737-.33-.737-.738 0-.407.33-.737.737-.737m3.726 1.43C12.402 2.45 9.668.16 6.331.16 2.834.16 0 2.672 0 5.77c0 1.775.93 3.357 2.383 4.385l-.005-.002s.424.286.301.9c-.123.615-.356 1.427-.356 1.427l1.623-1.001s.417-.284 1.055-.224c.086.017.173.03.261.044l.025.005-.005-.002c.341.05.69.078 1.048.078.137 0 .273-.005.408-.013-.033-.223-.05-.451-.05-.682 0-2.893 2.655-5.254 5.953-5.332" mask="url(#prefix__b)"/>
            <g transform="translate(7.166 5.81)">
                <mask id="prefix__d" fill="#fff">
                    <use xlink:href="#prefix__c"/>
                </mask>
                <path fill="#D0AF73" d="M7.129 4.166c-.346 0-.627-.28-.627-.626s.28-.626.627-.626c.346 0 .626.28.626.626s-.28.626-.626.626m-3.904 0c-.346 0-.627-.28-.627-.626s.28-.626.627-.626c.345 0 .626.28.626.626s-.28.626-.626.626m7.952.708c0-2.62-2.476-4.745-5.532-4.745S.112 2.253.112 4.874 2.59 9.62 5.645 9.62c.543 0 1.067-.068 1.562-.193l-.005.003c.126-.017.244-.024.354-.024.605 0 .957.214.957.214l.746.443s.009.009.016.009c.02 0 .031-.067-.18-.567-.286-.68.287-1.131.287-1.131H9.38c1.104-.868 1.796-2.114 1.796-3.5" mask="url(#prefix__d)"/>
            </g>
        </g>
        <g transform="translate(.947) translate(1 .033)">
            <mask id="prefix__f" fill="#fff">
                <use xlink:href="#prefix__e"/>
            </mask>
            <path fill="#000000" d="M4.131 5.398c-.408 0-.738-.33-.738-.738 0-.407.33-.737.738-.737.407 0 .738.33.738.737 0 .408-.33.738-.738.738m4.785-1.475c.408 0 .738.33.738.737 0 .408-.33.738-.738.738-.407 0-.737-.33-.737-.738 0-.407.33-.737.737-.737m3.726 1.43C12.402 2.45 9.668.16 6.331.16 2.834.16 0 2.672 0 5.77c0 1.775.93 3.357 2.383 4.385l-.005-.002s.424.286.301.9c-.123.615-.356 1.427-.356 1.427l1.623-1.001s.417-.284 1.055-.224c.086.017.173.03.261.044l.025.005-.005-.002c.341.05.69.078 1.048.078.137 0 .273-.005.408-.013-.033-.223-.05-.451-.05-.682 0-2.893 2.655-5.254 5.953-5.332" mask="url(#prefix__f)"/>
            <g transform="translate(7.166 5.81)">
                <mask id="prefix__h" fill="#fff">
                    <use xlink:href="#prefix__g"/>
                </mask>
                <path fill="#000000" d="M7.129 4.166c-.346 0-.627-.28-.627-.626s.28-.626.627-.626c.346 0 .626.28.626.626s-.28.626-.626.626m-3.904 0c-.346 0-.627-.28-.627-.626s.28-.626.627-.626c.345 0 .626.28.626.626s-.28.626-.626.626m7.952.708c0-2.62-2.476-4.745-5.532-4.745S.112 2.253.112 4.874 2.59 9.62 5.645 9.62c.543 0 1.067-.068 1.562-.193l-.005.003c.126-.017.244-.024.354-.024.605 0 .957.214.957.214l.746.443s.009.009.016.009c.02 0 .031-.067-.18-.567-.286-.68.287-1.131.287-1.131H9.38c1.104-.868 1.796-2.114 1.796-3.5" mask="url(#prefix__h)"/>
            </g>
        </g>
    </g>
</svg>
