<svg xmlns="http://www.w3.org/2000/svg" width="170" height="25" viewBox="0 0 170 25">
    <g fill="#FFF" fill-rule="evenodd">
        <path d="M10.12 8.494l.268-.832c.08-.25.154-.495.225-.736l.216.701c.157.514.374 1.156.645 1.904l1.418 4.255h-4.55l1.415-4.247c.151-.412.27-.754.364-1.045zM12.67.739H8.687L.082 23.892H4.77l2.227-6.21h7.24l2.195 6.21h4.94L12.736.914 12.67.74zM28.34 4.667h3.085c2.011 0 3.538.461 4.538 1.372.992.904 1.495 2.525 1.495 4.818v2.916c0 1.157-.137 2.146-.409 2.94-.266.78-.654 1.413-1.152 1.882-.5.47-1.128.818-1.867 1.035-.754.222-1.63.334-2.605.334h-3.086V4.667zM31.957.739h-8.142v23.152h8.205c1.777 0 3.316-.22 4.573-.658 1.268-.44 2.322-1.09 3.133-1.933.81-.843 1.407-1.899 1.773-3.138.361-1.222.544-2.645.544-4.231V10.7c0-3.193-.827-5.677-2.458-7.384-1.635-1.71-4.202-2.577-7.628-2.577zM50.292 13.95L60.203 13.95 60.203 10.148 50.292 10.148 50.292 4.604 60.861 4.604 60.861.739 45.769.739 45.769 23.891 61.081 23.891 61.081 20.027 50.292 20.027zM69.391 19.964L69.391.739 64.837.739 64.837 23.891 79.71 23.891 79.71 19.964zM87.951 4.667L94.599 4.667 94.599 23.891 99.154 23.891 99.154 4.667 105.771 4.667 105.771.739 87.951.739zM116.854 20.027c-.724 0-1.416-.097-2.056-.287-.621-.184-1.174-.515-1.641-.982-.471-.471-.85-1.122-1.128-1.936-.281-.824-.425-1.881-.425-3.142V10.95c0-1.26.144-2.318.425-3.143.278-.814.657-1.465 1.128-1.935.466-.467 1.019-.797 1.641-.983.642-.19 1.334-.286 2.056-.286.743 0 1.445.096 2.087.286.623.186 1.176.517 1.642.984.47.468.843 1.118 1.11 1.931.273.827.411 1.885.411 3.146v2.729c0 1.261-.138 2.32-.41 3.145-.268.813-.641 1.463-1.11 1.933-.468.467-1.02.798-1.643.982-.64.19-1.342.287-2.087.287m6.892-17.29c-.903-.806-1.965-1.405-3.157-1.781-1.182-.373-2.439-.562-3.735-.562-1.296 0-2.552.189-3.734.562-1.192.376-2.254.975-3.157 1.78-.905.808-1.63 1.86-2.155 3.125-.524 1.26-.789 2.804-.789 4.588v3.732c0 1.806.265 3.365.788 4.635.526 1.277 1.246 2.328 2.14 3.125.892.795 1.95 1.384 3.143 1.75 1.18.362 2.448.545 3.764.545 1.317 0 2.584-.183 3.764-.545 1.194-.366 2.251-.955 3.143-1.75.894-.797 1.614-1.848 2.14-3.125.523-1.271.788-2.83.788-4.635V10.45c0-1.782-.265-3.326-.788-4.588-.526-1.266-1.251-2.317-2.155-3.125M143.555 14.37c0 1.08-.092 2.003-.274 2.742-.178.72-.45 1.306-.81 1.743-.352.428-.811.738-1.365.919-.575.189-1.264.284-2.048.284s-1.473-.095-2.048-.284c-.554-.181-1.013-.49-1.365-.919-.36-.436-.632-1.023-.81-1.743-.181-.739-.274-1.662-.274-2.743V.74h-4.554v13.568c0 1.88.2 3.47.592 4.722.398 1.27.99 2.304 1.76 3.074.771.771 1.734 1.328 2.86 1.653 1.107.318 2.398.48 3.839.48 1.44 0 2.732-.162 3.838-.48 1.127-.325 2.09-.881 2.86-1.653.77-.77 1.363-1.804 1.761-3.074.393-1.254.593-2.843.593-4.722V.739h-4.555v13.63zM156.797 4.635h3.775c1.302 0 2.232.255 2.763.757.534.506.793 1.145.793 1.952v.941c0 .783-.272 1.404-.833 1.9-.563.495-1.595.747-3.067.747h-3.431V4.635zm12.74 18.874c-.757-1.66-1.5-3.31-2.21-4.906-.688-1.545-1.394-3.113-2.101-4.666 1.095-.536 1.938-1.275 2.507-2.201.61-.991.919-2.12.919-3.357V7.22c0-.93-.17-1.805-.508-2.599-.339-.797-.837-1.489-1.481-2.057-.641-.565-1.442-1.015-2.38-1.338-.934-.322-2.013-.486-3.209-.486h-8.832v23.152h4.555v-9.063h4.16l3.795 9.063h4.96l-.175-.382z"/>
    </g>
</svg>
