<svg xmlns="http://www.w3.org/2000/svg" width="25" height="19" viewBox="0 0 25 19">
    <g fill="none" fill-rule="evenodd">
        <path d="M0 0H218V36H0z" transform="translate(-15 -9)"/>
        <g>
            <path fill="#DB3B39" d="M0 18.999L25 18.999 25 -0.001 0 -0.001z" transform="translate(-15 -9) translate(15 9)"/>
            <path fill="#FFF" d="M6.185 5.349L7.006 7.673 5.047 6.214 5.043 6.203 5.039 6.214 3.078 7.673 3.9 5.349 3.923 5.332 3.91 5.332 1.893 3.962 4.322 3.965 4.989 1.627 5.738 3.962 5.734 3.968 5.742 3.965 8.194 3.962 6.17 5.332 6.164 5.332zM11.577 7.719L11.73 8.159 11.868 7.712 11.714 7.235z" transform="translate(-15 -9) translate(15 9)"/>
            <path fill="#FFF" d="M11.868 7.711L11.491 7.983 11.956 7.993 12.369 7.711z" transform="translate(-15 -9) translate(15 9)"/>
            <path fill="#FFF" d="M11.727 8.173L12.128 8.471 11.958 7.996 11.58 7.727z" transform="translate(-15 -9) translate(15 9)"/>
            <path fill="#FFF" d="M11.083 7.711L11.495 7.993 11.962 7.983 11.584 7.711z" transform="translate(-15 -9) translate(15 9)"/>
            <path fill="#FFF" d="M11.494 7.996L11.325 8.47 11.725 8.173 11.872 7.727zM9.313 10.107L9.337 10.573 9.595 10.185 9.581 9.684z" transform="translate(-15 -9) translate(15 9)"/>
            <path fill="#FFF" d="M9.157 10.337L9.601 10.479 10.076 10.324 9.595 10.185z" transform="translate(-15 -9) translate(15 9)"/>
            <path fill="#FFF" d="M9.33 10.585L9.629 10.983 9.602 10.481 9.315 10.116z" transform="translate(-15 -9) translate(15 9)"/>
            <path fill="#FFF" d="M9.159 10.347L9.608 10.47 9.321 10.104 8.841 9.962z" transform="translate(-15 -9) translate(15 9)"/>
            <path fill="#FFF" d="M9.155 10.35L8.862 10.758 9.329 10.585 9.594 10.2zM12.17 4.77L12.055 5.221 12.418 4.926 12.554 4.445z" transform="translate(-15 -9) translate(15 9)"/>
            <path fill="#FFF" d="M11.955 4.94L12.336 5.208 12.835 5.206 12.418 4.927z" transform="translate(-15 -9) translate(15 9)"/>
            <path fill="#FFF" d="M12.047 5.23L12.214 5.701 12.336 5.211 12.169 4.778z" transform="translate(-15 -9) translate(15 9)"/>
            <path fill="#FFF" d="M11.953 4.95L12.346 5.203 12.181 4.768 11.766 4.487z" transform="translate(-15 -9) translate(15 9)"/>
            <path fill="#FFF" d="M11.949 4.95L11.548 5.251 12.045 5.228 12.412 4.942zM10.758 1.997L10.778 2.462 11.04 2.074 11.031 1.574z" transform="translate(-15 -9) translate(15 9)"/>
            <path fill="#FFF" d="M10.599 2.224L11.042 2.369 11.518 2.222 11.039 2.076z" transform="translate(-15 -9) translate(15 9)"/>
            <path fill="#FFF" d="M10.771 2.473L11.066 2.876 11.043 2.373 10.76 2.005z" transform="translate(-15 -9) translate(15 9)"/>
            <path fill="#FFF" d="M10.601 2.233L11.05 2.36 10.768 1.993 10.288 1.845z" transform="translate(-15 -9) translate(15 9)"/>
            <path fill="#FFF" d="M10.597 2.237L10.3 2.64 10.769 2.472 11.038 2.091z" transform="translate(-15 -9) translate(15 9)"/>
        </g>
    </g>
</svg>
