<svg xmlns="http://www.w3.org/2000/svg" width="25" height="19" viewBox="0 0 25 19">
    <g fill="none" fill-rule="evenodd">
        <path d="M0 0H218V36H0z" transform="translate(-15 -9)"/>
        <g>
            <path fill="#CE3938" d="M0 7.294L25 7.294 25 5.831 0 5.831zM0 4.376L25 4.376 25 2.915 0 2.915zM0 1.461L25 1.461 25 0 0 0zM0 10.212L25 10.212 25 8.75 0 8.75zM0 13.126L25 13.126 25 11.663 0 11.663zM0 16.041L25 16.041 25 14.58 0 14.58zM0 18.953L25 18.953 25 17.492 0 17.492z" transform="translate(-15 -9) translate(15 9)"/>
            <path fill="#FFF" d="M0 5.835L25 5.835 25 4.374 0 4.374zM0 2.92L25 2.92 25 1.459 0 1.459zM0 8.753L25 8.753 25 7.292 0 7.292zM0 11.664L25 11.664 25 10.203 0 10.203zM0 14.582L25 14.582 25 13.121 0 13.121zM0 17.499L25 17.499 25 16.038 0 16.038z" transform="translate(-15 -9) translate(15 9)"/>
            <path fill="#314588" d="M0 8.874L11.404 8.874 11.404 0.047 0 0.047z" transform="translate(-15 -9) translate(15 9)"/>
            <path fill="#FFF" d="M9.256 1.597L8.899 1.597 9.196 1.798 9.198 1.798 9.195 1.8 9.075 2.142 9.361 1.927 9.363 1.925 9.364 1.927 9.652 2.142 9.531 1.8 9.527 1.798 9.529 1.798 9.828 1.597 9.466 1.597 9.466 1.597 9.355 1.253zM9.256 3.38L8.899 3.38 9.196 3.582 9.198 3.582 9.195 3.585 9.075 3.925 9.361 3.712 9.363 3.71 9.364 3.712 9.652 3.925 9.531 3.585 9.527 3.582 9.529 3.582 9.828 3.38 9.466 3.38 9.466 3.382 9.466 3.38 9.355 3.035zM9.256 5.163L8.899 5.163 9.196 5.365 9.198 5.365 9.195 5.368 9.075 5.708 9.361 5.494 9.363 5.492 9.364 5.494 9.652 5.708 9.531 5.368 9.527 5.365 9.529 5.365 9.828 5.163 9.466 5.163 9.466 5.163 9.355 4.82zM9.256 6.946L8.899 6.946 9.196 7.149 9.198 7.149 9.195 7.151 9.075 7.491 9.361 7.278 9.363 7.276 9.364 7.278 9.652 7.491 9.531 7.151 9.527 7.149 9.529 7.149 9.828 6.946 9.466 6.946 9.466 6.948 9.466 6.946 9.355 6.602zM7.371 1.597L7.014 1.597 7.31 1.798 7.311 1.798 7.309 1.8 7.187 2.142 7.476 1.927 7.477 1.925 7.478 1.927 7.766 2.142 7.645 1.8 7.64 1.798 7.642 1.798 7.94 1.597 7.58 1.597 7.579 1.597 7.469 1.253zM7.371 3.38L7.014 3.38 7.31 3.582 7.311 3.582 7.309 3.585 7.187 3.925 7.476 3.712 7.477 3.71 7.478 3.712 7.766 3.925 7.645 3.585 7.64 3.582 7.642 3.582 7.94 3.38 7.58 3.38 7.578 3.382 7.579 3.38 7.469 3.035zM7.371 5.163L7.014 5.163 7.31 5.365 7.311 5.365 7.309 5.368 7.187 5.708 7.476 5.494 7.477 5.492 7.478 5.494 7.766 5.708 7.645 5.368 7.64 5.365 7.642 5.365 7.94 5.163 7.58 5.163 7.579 5.163 7.469 4.82zM7.371 6.946L7.014 6.946 7.31 7.149 7.311 7.149 7.309 7.151 7.187 7.491 7.476 7.278 7.477 7.276 7.478 7.278 7.766 7.491 7.645 7.151 7.64 7.149 7.642 7.149 7.94 6.946 7.58 6.946 7.578 6.948 7.579 6.946 7.469 6.602zM5.484 1.597L5.126 1.597 5.423 1.798 5.425 1.798 5.421 1.8 5.301 2.142 5.59 1.927 5.59 1.925 5.59 1.927 5.88 2.142 5.759 1.8 5.754 1.798 5.756 1.798 6.054 1.597 5.693 1.597 5.692 1.597 5.581 1.253zM5.484 3.38L5.126 3.38 5.423 3.582 5.425 3.582 5.421 3.585 5.301 3.925 5.59 3.712 5.59 3.71 5.59 3.712 5.88 3.925 5.759 3.585 5.754 3.582 5.756 3.582 6.054 3.38 5.693 3.38 5.691 3.382 5.692 3.38 5.581 3.035zM5.484 5.163L5.126 5.163 5.423 5.365 5.425 5.365 5.421 5.368 5.301 5.708 5.59 5.494 5.59 5.492 5.59 5.494 5.88 5.708 5.759 5.368 5.754 5.365 5.756 5.365 6.054 5.163 5.693 5.163 5.692 5.163 5.581 4.82zM5.484 6.946L5.126 6.946 5.423 7.149 5.425 7.149 5.421 7.151 5.301 7.491 5.59 7.278 5.59 7.276 5.59 7.278 5.88 7.491 5.759 7.151 5.754 7.149 5.756 7.149 6.054 6.946 5.693 6.946 5.691 6.948 5.692 6.946 5.581 6.602zM3.629 1.597L3.271 1.597 3.568 1.798 3.57 1.798 3.566 1.8 3.445 2.142 3.735 1.927 4.024 2.142 3.904 1.8 3.9 1.798 3.901 1.798 4.198 1.597 3.838 1.597 3.726 1.253zM3.629 3.38L3.271 3.38 3.568 3.582 3.57 3.582 3.566 3.585 3.445 3.925 3.735 3.712 4.024 3.925 3.904 3.585 3.9 3.582 3.901 3.582 4.198 3.38 3.838 3.38 3.726 3.035zM3.629 5.163L3.271 5.163 3.568 5.365 3.57 5.365 3.566 5.368 3.445 5.708 3.735 5.494 4.024 5.708 3.904 5.368 3.9 5.365 3.901 5.365 4.198 5.163 3.838 5.163 3.726 4.82zM3.629 6.946L3.271 6.946 3.568 7.149 3.57 7.149 3.566 7.151 3.445 7.491 3.735 7.278 4.024 7.491 3.904 7.151 3.9 7.149 3.901 7.149 4.198 6.946 3.838 6.946 3.726 6.602zM1.773 1.597L1.415 1.597 1.712 1.798 1.713 1.798 1.71 1.8 1.59 2.142 1.877 1.927 1.877 1.925 1.879 1.927 2.167 2.142 2.046 1.8 2.042 1.798 2.043 1.798 2.342 1.597 1.981 1.597 1.87 1.253zM1.773 3.38L1.415 3.38 1.712 3.582 1.713 3.582 1.71 3.585 1.59 3.925 1.877 3.712 1.877 3.71 1.879 3.712 2.167 3.925 2.046 3.585 2.042 3.582 2.043 3.582 2.342 3.38 1.981 3.38 1.981 3.382 1.981 3.38 1.87 3.035zM1.773 5.163L1.415 5.163 1.712 5.365 1.713 5.365 1.71 5.368 1.59 5.708 1.877 5.494 1.877 5.492 1.879 5.494 2.167 5.708 2.046 5.368 2.042 5.365 2.043 5.365 2.342 5.163 1.981 5.163 1.87 4.82zM1.773 6.946L1.415 6.946 1.712 7.149 1.713 7.149 1.71 7.151 1.59 7.491 1.877 7.278 1.877 7.276 1.879 7.278 2.167 7.491 2.046 7.151 2.042 7.149 2.043 7.149 2.342 6.946 1.981 6.946 1.981 6.948 1.981 6.946 1.87 6.602zM10.172 2.487L9.814 2.487 10.111 2.687 10.113 2.687 10.11 2.692 9.989 3.032 10.278 2.819 10.566 3.032 10.447 2.692 10.442 2.687 10.443 2.687 10.742 2.487 10.38 2.487 10.379 2.489 10.379 2.487 10.269 2.142zM10.172 4.27L9.814 4.27 10.111 4.472 10.113 4.472 10.11 4.475 9.989 4.816 10.278 4.601 10.566 4.816 10.447 4.475 10.442 4.472 10.443 4.472 10.742 4.27 10.38 4.27 10.379 4.27 10.269 3.927zM10.172 6.056L9.814 6.055 10.111 6.258 10.113 6.258 10.11 6.259 9.989 6.601 10.278 6.386 10.566 6.601 10.447 6.259 10.442 6.258 10.443 6.258 10.742 6.055 10.38 6.056 10.379 6.056 10.379 6.055 10.269 5.713zM10.172 7.842L9.814 7.842 10.111 8.044 10.113 8.044 10.11 8.045 9.989 8.387 10.278 8.172 10.566 8.387 10.447 8.045 10.442 8.044 10.443 8.044 10.742 7.842 10.38 7.842 10.379 7.844 10.379 7.842 10.269 7.499zM10.172.711L9.814.711 10.111.912 10.113.912 10.11.916 9.989 1.256 10.278 1.043 10.566 1.256 10.447.916 10.442.912 10.443.912 10.742.711 10.38.711 10.379.713 10.379.711 10.269.367zM8.327 2.487L7.969 2.487 8.267 2.687 8.268 2.687 8.265 2.692 8.145 3.032 8.434 2.819 8.722 3.032 8.601 2.692 8.599 2.687 8.6 2.687 8.897 2.487 8.536 2.487 8.535 2.489 8.535 2.487 8.425 2.142zM8.327 4.27L7.969 4.27 8.267 4.472 8.268 4.472 8.265 4.475 8.145 4.816 8.434 4.601 8.722 4.816 8.601 4.475 8.599 4.472 8.6 4.472 8.897 4.27 8.536 4.27 8.535 4.27 8.425 3.927zM8.327 6.056L7.969 6.055 8.267 6.258 8.268 6.258 8.265 6.259 8.145 6.601 8.434 6.386 8.722 6.601 8.601 6.259 8.599 6.258 8.6 6.258 8.897 6.055 8.536 6.056 8.535 6.056 8.535 6.055 8.425 5.713zM8.327 7.842L7.969 7.842 8.267 8.044 8.268 8.044 8.265 8.045 8.145 8.387 8.434 8.172 8.722 8.387 8.601 8.045 8.599 8.044 8.6 8.044 8.897 7.842 8.536 7.842 8.535 7.844 8.535 7.842 8.425 7.499zM8.327.711L7.969.711 8.267.912 8.268.912 8.265.916 8.145 1.256 8.434 1.043 8.722 1.256 8.601.916 8.599.912 8.6.912 8.897.711 8.536.711 8.535.713 8.535.711 8.425.367zM6.408 2.487L6.052 2.487 6.348 2.687 6.35 2.687 6.347 2.692 6.227 3.032 6.515 2.819 6.515 2.817 6.516 2.819 6.805 3.032 6.683 2.692 6.679 2.687 6.681 2.687 6.978 2.487 6.619 2.487 6.617 2.489 6.617 2.487 6.508 2.142zM6.408 4.27L6.052 4.27 6.348 4.472 6.35 4.472 6.347 4.475 6.227 4.816 6.515 4.601 6.516 4.601 6.805 4.816 6.683 4.475 6.679 4.472 6.681 4.472 6.978 4.27 6.619 4.27 6.617 4.27 6.508 3.927zM6.408 6.056L6.052 6.055 6.348 6.258 6.35 6.258 6.347 6.259 6.227 6.601 6.515 6.386 6.515 6.385 6.516 6.386 6.805 6.601 6.683 6.259 6.679 6.258 6.681 6.258 6.978 6.055 6.619 6.056 6.617 6.056 6.617 6.055 6.508 5.713zM6.408 7.842L6.052 7.842 6.348 8.044 6.35 8.044 6.347 8.045 6.227 8.387 6.515 8.172 6.515 8.171 6.516 8.172 6.805 8.387 6.683 8.045 6.679 8.044 6.681 8.044 6.978 7.842 6.619 7.842 6.617 7.844 6.617 7.842 6.508 7.499zM6.408.711L6.052.711 6.348.912 6.35.912 6.347.916 6.227 1.256 6.515 1.043 6.515 1.041 6.516 1.043 6.805 1.256 6.683.916 6.679.912 6.681.912 6.978.711 6.619.711 6.617.713 6.617.711 6.508.367zM4.533 2.487L4.177 2.487 4.472 2.687 4.473 2.687 4.471 2.692 4.35 3.032 4.639 2.819 4.639 2.817 4.641 2.819 4.927 3.032 4.808 2.692 4.803 2.687 4.804 2.687 5.103 2.487 4.741 2.487 4.741 2.489 4.741 2.487 4.63 2.142zM4.533 4.27L4.177 4.27 4.472 4.472 4.473 4.472 4.471 4.475 4.35 4.816 4.639 4.601 4.641 4.601 4.927 4.816 4.808 4.475 4.803 4.472 4.804 4.472 5.103 4.27 4.741 4.27 4.63 3.927zM4.533 6.056L4.177 6.055 4.472 6.258 4.473 6.258 4.471 6.259 4.35 6.601 4.639 6.386 4.639 6.385 4.641 6.386 4.927 6.601 4.808 6.259 4.803 6.258 4.804 6.258 5.103 6.055 4.741 6.056 4.741 6.055 4.63 5.713zM4.533 7.842L4.177 7.842 4.472 8.044 4.473 8.044 4.471 8.045 4.35 8.387 4.639 8.172 4.639 8.171 4.641 8.172 4.927 8.387 4.808 8.045 4.803 8.044 4.804 8.044 5.103 7.842 4.741 7.842 4.741 7.844 4.741 7.842 4.63 7.499zM4.533.711L4.177.711 4.472.912 4.473.912 4.471.916 4.35 1.256 4.639 1.043 4.639 1.041 4.641 1.043 4.927 1.256 4.808.916 4.803.912 4.804.912 5.103.711 4.741.711 4.741.713 4.741.711 4.63.367zM2.695 2.487L2.339 2.487 2.636 2.687 2.638 2.687 2.635 2.692 2.514 3.032 2.801 2.819 2.802 2.817 2.803 2.819 3.091 3.032 2.971 2.692 2.968 2.687 2.969 2.687 3.267 2.487 2.906 2.487 2.905 2.489 2.905 2.487 2.795 2.142zM2.695 4.27L2.339 4.27 2.636 4.472 2.638 4.472 2.635 4.475 2.514 4.816 2.801 4.601 2.802 4.601 2.803 4.601 3.091 4.816 2.971 4.475 2.968 4.472 2.969 4.472 3.267 4.27 2.906 4.27 2.905 4.27 2.795 3.927zM2.695 6.056L2.339 6.055 2.636 6.258 2.638 6.258 2.635 6.259 2.514 6.601 2.801 6.386 2.802 6.385 2.803 6.386 3.091 6.601 2.971 6.259 2.968 6.258 2.969 6.258 3.267 6.055 2.906 6.056 2.905 6.056 2.905 6.055 2.795 5.713zM2.695 7.842L2.339 7.842 2.636 8.044 2.638 8.044 2.635 8.045 2.514 8.387 2.801 8.172 2.802 8.171 2.803 8.172 3.091 8.387 2.971 8.045 2.968 8.044 2.969 8.044 3.267 7.842 2.906 7.842 2.905 7.844 2.905 7.842 2.795 7.499zM2.695.711L2.339.711 2.636.912 2.638.912 2.635.916 2.514 1.256 2.801 1.043 2.802 1.041 2.803 1.043 3.091 1.256 2.971.916 2.968.912 2.969.912 3.267.711 2.906.711 2.905.713 2.905.711 2.795.367zM.828 2.487L.47 2.487.769 2.687.77 2.687.768 2.692.646 3.032.935 2.819.935 2.817.936 2.819 1.224 3.032 1.103 2.692 1.1 2.687 1.101 2.687 1.399 2.487 1.037 2.487 1.037 2.489 1.037 2.487.926 2.142zM.828 4.27L.47 4.27.769 4.472.77 4.472.768 4.475.646 4.816.935 4.601.936 4.601 1.224 4.816 1.103 4.475 1.1 4.472 1.101 4.472 1.399 4.27 1.037 4.27.926 3.927zM.828 6.056L.47 6.055.769 6.258.77 6.258.768 6.259.646 6.601.935 6.386.935 6.385.936 6.386 1.224 6.601 1.103 6.259 1.1 6.258 1.101 6.258 1.399 6.055 1.037 6.056 1.037 6.055.926 5.713zM.828 7.842L.47 7.842.769 8.044.77 8.044.768 8.045.646 8.387.935 8.172.935 8.171.936 8.172 1.224 8.387 1.103 8.045 1.1 8.044 1.101 8.044 1.399 7.842 1.037 7.842 1.037 7.844 1.037 7.842.926 7.499zM.828.711L.47.711.769.912.77.912.768.916.646 1.256.935 1.043.935 1.041.936 1.043 1.224 1.256 1.103.916 1.1.912 1.101.912 1.399.711 1.037.711 1.037.713 1.037.711.926.367z" transform="translate(-15 -9) translate(15 9)"/>
        </g>
    </g>
</svg>
