<svg xmlns="http://www.w3.org/2000/svg" width="25" height="19" viewBox="0 0 25 19">
    <g fill="none" fill-rule="evenodd">
        <path d="M0 0H218V36H0z" transform="translate(-15 -9)"/>
        <g>
            <path fill="#CE3938" d="M0 19L25 19 25 0 0 0z" transform="translate(-15 -9) translate(15 9)"/>
            <path fill="#EEE845" d="M14.541 10.403L16.172 15.024 12.275 12.126 12.268 12.103 12.259 12.126 8.362 15.024 9.994 10.403 10.038 10.373 10.017 10.373 6 7.642 10.833 7.651 12.156 3 13.65 7.642 13.644 7.659 13.656 7.651 18.534 7.642 14.51 10.373 14.497 10.373z" transform="translate(-15 -9) translate(15 9)"/>
        </g>
    </g>
</svg>
