<svg xmlns="http://www.w3.org/2000/svg" width="132" height="19" viewBox="0 0 132 19">
    <g fill="#FFF" fill-rule="evenodd">
        <path d="M8.554 6.534l.206-.64c.061-.192.119-.38.173-.566l.166.54c.12.394.288.888.496 1.464l1.09 3.273h-3.5l1.09-3.267c.116-.317.207-.58.28-.804zm1.96-5.965H7.453l-6.62 17.81h3.606l1.713-4.777h5.569l1.689 4.776h3.8L10.566.703 10.515.57zM22.569 3.59h2.373c1.547 0 2.721.355 3.491 1.055.763.696 1.15 1.943 1.15 3.707v2.243c0 .89-.106 1.65-.314 2.26-.205.6-.503 1.088-.887 1.449-.384.362-.868.63-1.436.796-.58.17-1.254.257-2.004.257H22.57V3.59zM25.352.569H19.09v17.809h6.312c1.367 0 2.55-.17 3.517-.506.976-.339 1.787-.84 2.41-1.488.623-.648 1.083-1.46 1.364-2.413.278-.94.42-2.035.42-3.255V8.23c0-2.456-.637-4.367-1.892-5.68C29.962 1.236 27.988.569 25.352.569zM39.456 10.731L47.079 10.731 47.079 7.806 39.456 7.806 39.456 3.541 47.586 3.541 47.586.568 35.976.568 35.976 18.378 47.755 18.378 47.755 15.405 39.456 15.405zM54.147 15.357L54.147.569 50.644.569 50.644 18.378 62.084 18.378 62.084 15.357zM68.424 3.59L73.538 3.59 73.538 18.378 77.041 18.378 77.041 3.59 82.132 3.59 82.132.569 68.424.569zM90.657 15.405c-.557 0-1.09-.074-1.581-.22-.479-.142-.904-.397-1.263-.756-.362-.362-.654-.863-.867-1.489-.217-.634-.327-1.447-.327-2.417V8.424c0-.97.11-1.784.327-2.418.213-.626.505-1.126.867-1.488.359-.36.784-.614 1.263-.756.493-.146 1.025-.22 1.581-.22.571 0 1.111.074 1.605.22.48.142.905.397 1.264.756.36.36.648.86.854 1.486.209.636.315 1.45.315 2.42v2.099c0 .97-.106 1.785-.315 2.42-.206.625-.493 1.125-.854 1.486-.36.36-.785.614-1.264.756-.492.146-1.032.22-1.605.22m5.301-13.3c-.694-.62-1.511-1.08-2.428-1.37-.91-.287-1.876-.432-2.873-.432-.997 0-1.963.145-2.873.432-.917.29-1.733.75-2.428 1.37-.696.621-1.254 1.43-1.658 2.403-.403.97-.606 2.158-.606 3.53v2.87c0 1.39.203 2.589.606 3.566.404.982.958 1.79 1.646 2.404.686.612 1.5 1.064 2.418 1.346.908.278 1.882.42 2.895.42 1.013 0 1.987-.142 2.896-.42.918-.281 1.731-.734 2.417-1.346.688-.613 1.242-1.422 1.646-2.404.403-.978.607-2.177.607-3.565V8.038c0-1.371-.204-2.559-.607-3.53-.405-.973-.962-1.782-1.658-2.403M111.196 11.053c0 .832-.07 1.542-.21 2.11-.137.553-.347 1.005-.623 1.34-.271.33-.625.568-1.05.708-.443.145-.973.218-1.576.218-.603 0-1.133-.073-1.576-.218-.426-.14-.779-.378-1.05-.707-.276-.336-.486-.787-.622-1.341-.14-.568-.211-1.278-.211-2.11V.57h-3.504v10.436c0 1.447.154 2.67.456 3.633.306.977.762 1.772 1.354 2.364.593.594 1.333 1.021 2.2 1.272.851.245 1.845.37 2.953.37 1.108 0 2.101-.125 2.952-.37.867-.25 1.607-.678 2.2-1.272.593-.592 1.049-1.387 1.355-2.364.302-.965.456-2.187.456-3.633V.57h-3.504v10.484zM121.382 3.565h2.904c1.002 0 1.717.196 2.125.583.411.389.61.88.61 1.502v.723c0 .603-.209 1.08-.64 1.46-.433.383-1.227.576-2.36.576h-2.639V3.565zm9.8 14.52c-.582-1.278-1.153-2.548-1.7-3.775-.529-1.188-1.072-2.395-1.616-3.59.842-.411 1.49-.98 1.929-1.693.469-.762.706-1.63.706-2.581v-.893c0-.716-.13-1.388-.39-1.999-.26-.613-.644-1.145-1.14-1.583-.493-.434-1.108-.78-1.83-1.03-.719-.247-1.549-.373-2.469-.373h-6.793v17.81h3.503v-6.972h3.2l2.92 6.972h3.814l-.134-.294z"/>
    </g>
</svg>
